<?xml version='1.0' encoding='utf-8'?>
<svg xmlns:xlink="http://www.w3.org/1999/xlink" xmlns="http://www.w3.org/2000/svg" version="1.1" baseProfile="full" width="800" height="600">
  <title>ElectricDipole</title>
  <desc>ElectricDipole
created with VectorFieldPlot 1.3
http://commons.wikimedia.org/wiki/User:Geek3/VectorFieldPlot
rights: GNU Free Documentation license,
        Creative Commons Attribution ShareAlike license
  </desc>
  <defs>
    <radialGradient id="white_spot" cx="0.65" cy="0.7" r="0.75">
      <stop stop-color="#ffffff" offset="0" stop-opacity="0.7"/>
      <stop stop-color="#ffffff" offset="0.1" stop-opacity="0.5"/>
      <stop stop-color="#ffffff" offset="0.6" stop-opacity="0"/>
      <stop stop-color="#000000" offset="0.6" stop-opacity="0"/>
      <stop stop-color="#000000" offset="0.75" stop-opacity="0.05"/>
      <stop stop-color="#000000" offset="0.85" stop-opacity="0.15"/>
      <stop stop-color="#000000" offset="1" stop-opacity="0.5"/>
    </radialGradient>
    <path id="arrow1" stroke="none" fill="#000000" transform="scale(0.01)" d="M 0.3,0 L -2.2,2.25 L 3.8,0 L -2.2,-2.25 L 0.3,0 Z"/>
  </defs>
  <rect id="background" x="0" y="0" width="800" height="600" fill="#ffffff"/>
  <g id="image" transform="translate(400.0,300.0) scale(100.0,-100.0)">
    <g id="fieldlines" fill="none" stroke="#000000" stroke-width="0.02" stroke-linejoin="round" stroke-linecap="round">
      <g id="fieldline1">
        <path d="M 1.0000,0.0000 L 4.0100,0.0000"/>
        <g id="arrows1">
          <use xlink:href="#arrow1" transform="translate(2.5050,0.0000) rotate(0.00) scale(2.0)"/>
        </g>
      </g>
      <g id="fieldline2">
        <path d="M 1.0000,0.0000 L 1.2748,0.0951 L 1.4739,0.1663 L 1.6564,0.2339 L 1.8316,0.3013 L 2.0030,0.3696 L 2.1722,0.4395 L 2.3403,0.5114 L 2.5076,0.5855 L 2.6746,0.6620 L 2.8414,0.7409 L 3.0082,0.8224 L 3.1751,0.9064 L 3.3419,0.9931 L 3.5089,1.0824 L 3.6759,1.1744 L 3.8430,1.2690 L 4.0100,1.3662 M -4.0100,1.3662 L -3.8430,1.2690 L -3.6759,1.1744 L -3.5089,1.0824 L -3.3419,0.9931 L -3.1751,0.9064 L -3.0082,0.8224 L -2.8414,0.7409 L -2.6746,0.6620 L -2.5076,0.5855 L -2.3403,0.5114 L -2.1722,0.4395 L -2.0030,0.3696 L -1.8316,0.3013 L -1.6564,0.2339 L -1.4739,0.1663 L -1.2748,0.0951 L -1.0000,0.0000"/>
        <g id="arrows2">
          <use xlink:href="#arrow1" transform="translate(2.5422,0.6013) rotate(24.61) scale(2.0)"/>
          <use xlink:href="#arrow1" transform="translate(-2.5422,0.6014) rotate(-24.49) scale(2.0)"/>
        </g>
      </g>
      <g id="fieldline3">
        <path d="M 1.0000,0.0000 L 1.1850,0.1450 L 1.3128,0.2481 L 1.4260,0.3425 L 1.5314,0.4336 L 1.6317,0.5236 L 1.7281,0.6134 L 1.8214,0.7037 L 1.9120,0.7949 L 2.0002,0.8872 L 2.0861,0.9808 L 2.1698,1.0757 L 2.2514,1.1720 L 2.3309,1.2697 L 2.4084,1.3689 L 2.4839,1.4696 L 2.5572,1.5716 L 2.6285,1.6751 L 2.6977,1.7800 L 2.7647,1.8862 L 2.8296,1.9936 L 2.8923,2.1024 L 2.9528,2.2123 L 3.0110,2.3233 L 3.0670,2.4354 L 3.1206,2.5486 L 3.1720,2.6626 L 3.2209,2.7776 L 3.2675,2.8934 L 3.3117,3.0100 M -3.3117,3.0100 L -3.2675,2.8934 L -3.2209,2.7776 L -3.1720,2.6626 L -3.1206,2.5486 L -3.0670,2.4354 L -3.0110,2.3233 L -2.9528,2.2123 L -2.8923,2.1024 L -2.8296,1.9936 L -2.7647,1.8862 L -2.6977,1.7800 L -2.6285,1.6751 L -2.5572,1.5716 L -2.4839,1.4696 L -2.4084,1.3689 L -2.3310,1.2697 L -2.2514,1.1720 L -2.1698,1.0757 L -2.0861,0.9808 L -2.0002,0.8872 L -1.9120,0.7949 L -1.8214,0.7037 L -1.7281,0.6134 L -1.6317,0.5236 L -1.5314,0.4336 L -1.4260,0.3425 L -1.3128,0.2481 L -1.1850,0.1450 L -1.0000,0.0000"/>
        <g id="arrows3">
          <use xlink:href="#arrow1" transform="translate(2.3807,1.3335) rotate(52.08) scale(2.0)"/>
          <use xlink:href="#arrow1" transform="translate(-2.3808,1.3335) rotate(-52.01) scale(2.0)"/>
        </g>
      </g>
      <g id="fieldline4">
        <path d="M 1.0000,0.0000 L 1.1110,0.1714 L 1.1836,0.2874 L 1.2457,0.3910 L 1.3013,0.4882 L 1.3521,0.5819 L 1.3990,0.6733 L 1.4424,0.7634 L 1.4828,0.8525 L 1.5202,0.9410 L 1.5548,1.0291 L 1.5867,1.1169 L 1.6159,1.2044 L 1.6425,1.2917 L 1.6665,1.3788 L 1.6880,1.4657 L 1.7069,1.5524 L 1.7233,1.6389 L 1.7372,1.7250 L 1.7485,1.8108 L 1.7574,1.8962 L 1.7637,1.9811 L 1.7676,2.0654 L 1.7691,2.1492 L 1.7681,2.2323 L 1.7647,2.3146 L 1.7590,2.3961 L 1.7508,2.4767 L 1.7403,2.5564 L 1.7276,2.6350 L 1.7125,2.7125 L 1.6952,2.7888 L 1.6757,2.8639 L 1.6541,2.9376 L 1.6303,3.0100 M -1.6303,3.0100 L -1.6541,2.9376 L -1.6757,2.8639 L -1.6952,2.7888 L -1.7125,2.7125 L -1.7276,2.6350 L -1.7403,2.5564 L -1.7508,2.4767 L -1.7590,2.3961 L -1.7647,2.3146 L -1.7681,2.2323 L -1.7691,2.1492 L -1.7676,2.0654 L -1.7637,1.9811 L -1.7574,1.8962 L -1.7485,1.8108 L -1.7372,1.7250 L -1.7233,1.6389 L -1.7069,1.5524 L -1.6880,1.4657 L -1.6665,1.3788 L -1.6425,1.2917 L -1.6159,1.2044 L -1.5867,1.1168 L -1.5548,1.0291 L -1.5202,0.9410 L -1.4828,0.8525 L -1.4424,0.7634 L -1.3990,0.6733 L -1.3521,0.5819 L -1.3013,0.4882 L -1.2457,0.3910 L -1.1836,0.2874 L -1.1110,0.1714 L -1.0000,0.0000"/>
        <g id="arrows4">
          <use xlink:href="#arrow1" transform="translate(1.6803,1.4353) rotate(76.52) scale(2.0)"/>
          <use xlink:href="#arrow1" transform="translate(-1.6805,1.4352) rotate(-76.13) scale(2.0)"/>
        </g>
      </g>
      <g id="fieldline5">
        <path d="M 1.0000,0.0000 L 1.0466,0.1874 L 1.0746,0.3093 L 1.0965,0.4150 L 1.1140,0.5119 L 1.1280,0.6030 L 1.1388,0.6900 L 1.1467,0.7739 L 1.1518,0.8552 L 1.1543,0.9343 L 1.1542,1.0113 L 1.1515,1.0866 L 1.1464,1.1601 L 1.1389,1.2319 L 1.1290,1.3021 L 1.1168,1.3705 L 1.1023,1.4373 L 1.0856,1.5023 L 1.0667,1.5656 L 1.0458,1.6271 L 1.0228,1.6868 L 0.9978,1.7445 L 0.9708,1.8003 L 0.9421,1.8542 L 0.9115,1.9059 L 0.8793,1.9556 L 0.8454,2.0031 L 0.8100,2.0484 L 0.7730,2.0916 L 0.7347,2.1324 L 0.6951,2.1709 L 0.6543,2.2071 L 0.6123,2.2409 L 0.5693,2.2723 L 0.5252,2.3013 L 0.4803,2.3278 L 0.4346,2.3518 L 0.3881,2.3734 L 0.3410,2.3924 L 0.2933,2.4089 L 0.2452,2.4230 L 0.1966,2.4344 L 0.1477,2.4434 L 0.0986,2.4497 L 0.0494,2.4536 L -0.0000,2.4549 L -0.0493,2.4536 L -0.0986,2.4497 L -0.1477,2.4434 L -0.1966,2.4344 L -0.2452,2.4230 L -0.2933,2.4090 L -0.3410,2.3924 L -0.3881,2.3734 L -0.4346,2.3518 L -0.4803,2.3278 L -0.5252,2.3012 L -0.5692,2.2723 L -0.6123,2.2409 L -0.6543,2.2071 L -0.6951,2.1709 L -0.7347,2.1324 L -0.7730,2.0916 L -0.8100,2.0485 L -0.8454,2.0031 L -0.8793,1.9556 L -0.9115,1.9059 L -0.9421,1.8542 L -0.9708,1.8004 L -0.9978,1.7445 L -1.0228,1.6868 L -1.0458,1.6271 L -1.0667,1.5656 L -1.0856,1.5024 L -1.1023,1.4373 L -1.1168,1.3705 L -1.1290,1.3021 L -1.1389,1.2319 L -1.1464,1.1601 L -1.1515,1.0866 L -1.1542,1.0114 L -1.1543,0.9343 L -1.1518,0.8552 L -1.1467,0.7739 L -1.1388,0.6900 L -1.1280,0.6030 L -1.1140,0.5119 L -1.0965,0.4150 L -1.0746,0.3093 L -1.0466,0.1874 L -1.0000,0.0000"/>
        <g id="arrows5">
          <use xlink:href="#arrow1" transform="translate(0.0000,2.4541) rotate(-179.43) scale(2.0)"/>
        </g>
      </g>
      <g id="fieldline6">
        <path d="M 1.0000,0.0000 L 0.9839,0.1847 L 0.9717,0.3001 L 0.9591,0.3971 L 0.9455,0.4834 L 0.9305,0.5627 L 0.9142,0.6365 L 0.8962,0.7059 L 0.8768,0.7716 L 0.8557,0.8340 L 0.8331,0.8933 L 0.8090,0.9497 L 0.7833,1.0035 L 0.7561,1.0546 L 0.7276,1.1032 L 0.6976,1.1492 L 0.6663,1.1928 L 0.6337,1.2338 L 0.5999,1.2725 L 0.5651,1.3086 L 0.5291,1.3422 L 0.4922,1.3734 L 0.4543,1.4021 L 0.4157,1.4284 L 0.3762,1.4521 L 0.3361,1.4734 L 0.2954,1.4921 L 0.2542,1.5084 L 0.2125,1.5221 L 0.1704,1.5334 L 0.1281,1.5421 L 0.0855,1.5484 L 0.0428,1.5521 L -0.0000,1.5534 L -0.0428,1.5521 L -0.0855,1.5484 L -0.1281,1.5421 L -0.1704,1.5334 L -0.2125,1.5221 L -0.2542,1.5084 L -0.2954,1.4921 L -0.3361,1.4734 L -0.3762,1.4521 L -0.4157,1.4284 L -0.4543,1.4021 L -0.4922,1.3734 L -0.5291,1.3422 L -0.5651,1.3086 L -0.6000,1.2724 L -0.6337,1.2338 L -0.6663,1.1928 L -0.6976,1.1492 L -0.7276,1.1032 L -0.7561,1.0546 L -0.7833,1.0035 L -0.8090,0.9497 L -0.8331,0.8933 L -0.8557,0.8340 L -0.8768,0.7716 L -0.8962,0.7059 L -0.9142,0.6365 L -0.9305,0.5627 L -0.9455,0.4835 L -0.9591,0.3971 L -0.9717,0.3001 L -0.9839,0.1847 L -1.0000,0.0000"/>
        <g id="arrows6">
          <use xlink:href="#arrow1" transform="translate(0.0000,1.5524) rotate(-179.05) scale(2.0)"/>
        </g>
      </g>
      <g id="fieldline7">
        <path d="M 1.0000,0.0000 L 0.9240,0.1713 L 0.8761,0.2738 L 0.8346,0.3572 L 0.7960,0.4294 L 0.7588,0.4937 L 0.7223,0.5520 L 0.6860,0.6052 L 0.6497,0.6541 L 0.6131,0.6991 L 0.5762,0.7406 L 0.5389,0.7788 L 0.5012,0.8138 L 0.4630,0.8458 L 0.4244,0.8749 L 0.3854,0.9012 L 0.3459,0.9247 L 0.3061,0.9455 L 0.2660,0.9636 L 0.2256,0.9790 L 0.1849,0.9919 L 0.1440,1.0021 L 0.1030,1.0098 L 0.0619,1.0149 L 0.0206,1.0175 L -0.0206,1.0175 L -0.0618,1.0149 L -0.1030,1.0098 L -0.1440,1.0021 L -0.1849,0.9919 L -0.2256,0.9790 L -0.2660,0.9636 L -0.3061,0.9455 L -0.3460,0.9247 L -0.3854,0.9012 L -0.4244,0.8749 L -0.4630,0.8458 L -0.5012,0.8138 L -0.5389,0.7788 L -0.5762,0.7406 L -0.6131,0.6991 L -0.6497,0.6541 L -0.6861,0.6052 L -0.7223,0.5520 L -0.7588,0.4937 L -0.7960,0.4294 L -0.8346,0.3572 L -0.8762,0.2738 L -0.9240,0.1713 L -1.0000,0.0000"/>
        <g id="arrows7">
          <use xlink:href="#arrow1" transform="translate(0.0000,1.0169) rotate(-178.63) scale(2.0)"/>
        </g>
      </g>
      <g id="fieldline8">
        <path d="M 1.0000,0.0000 L 0.8664,0.1440 L 0.7869,0.2265 L 0.7217,0.2910 L 0.6633,0.3453 L 0.6094,0.3921 L 0.5585,0.4332 L 0.5097,0.4693 L 0.4624,0.5014 L 0.4162,0.5296 L 0.3709,0.5545 L 0.3261,0.5761 L 0.2819,0.5947 L 0.2380,0.6105 L 0.1944,0.6235 L 0.1510,0.6338 L 0.1078,0.6415 L 0.0646,0.6466 L 0.0216,0.6492 L -0.0215,0.6492 L -0.0647,0.6466 L -0.1077,0.6415 L -0.1510,0.6338 L -0.1944,0.6235 L -0.2380,0.6105 L -0.2819,0.5947 L -0.3261,0.5761 L -0.3709,0.5545 L -0.4162,0.5296 L -0.4624,0.5014 L -0.5097,0.4693 L -0.5585,0.4332 L -0.6094,0.3921 L -0.6633,0.3453 L -0.7217,0.2910 L -0.7869,0.2265 L -0.8664,0.1440 L -1.0000,0.0000"/>
        <g id="arrows8">
          <use xlink:href="#arrow1" transform="translate(0.0000,0.6487) rotate(-178.69) scale(2.0)"/>
        </g>
      </g>
      <g id="fieldline9">
        <path d="M 1.0000,0.0000 L 0.8066,0.1038 L 0.6969,0.1604 L 0.6097,0.2028 L 0.5340,0.2372 L 0.4659,0.2655 L 0.4029,0.2891 L 0.3436,0.3088 L 0.2870,0.3250 L 0.2324,0.3382 L 0.1794,0.3484 L 0.1274,0.3560 L 0.0762,0.3610 L 0.0253,0.3635 L -0.0253,0.3635 L -0.0762,0.3610 L -0.1274,0.3560 L -0.1794,0.3485 L -0.2324,0.3382 L -0.2870,0.3250 L -0.3436,0.3088 L -0.4028,0.2891 L -0.4658,0.2655 L -0.5340,0.2372 L -0.6097,0.2028 L -0.6969,0.1604 L -0.8066,0.1038 L -1.0000,0.0000"/>
        <g id="arrows9">
          <use xlink:href="#arrow1" transform="translate(0.0000,0.3632) rotate(-179.06) scale(2.0)"/>
        </g>
      </g>
      <g id="fieldline10">
        <path d="M 1.0000,0.0000 L 0.7029,0.0488 L 0.5434,0.0729 L 0.4200,0.0894 L 0.3139,0.1011 L 0.2182,0.1093 L 0.1287,0.1145 L 0.0427,0.1171 L -0.0426,0.1171 L -0.1288,0.1145 L -0.2182,0.1093 L -0.3139,0.1011 L -0.4200,0.0894 L -0.5434,0.0729 L -0.7028,0.0488 L -1.0000,0.0000"/>
        <g id="arrows10">
          <use xlink:href="#arrow1" transform="translate(0.0000,0.1170) rotate(-179.84) scale(2.0)"/>
        </g>
      </g>
      <g id="fieldline11">
        <path d="M 1.0000,0.0000 L 0.7029,-0.0488 L 0.5434,-0.0729 L 0.4200,-0.0894 L 0.3139,-0.1011 L 0.2182,-0.1093 L 0.1287,-0.1145 L 0.0427,-0.1171 L -0.0426,-0.1171 L -0.1288,-0.1145 L -0.2182,-0.1093 L -0.3139,-0.1011 L -0.4200,-0.0894 L -0.5434,-0.0729 L -0.7028,-0.0488 L -1.0000,0.0000"/>
        <g id="arrows11">
          <use xlink:href="#arrow1" transform="translate(0.0000,-0.1170) rotate(179.84) scale(2.0)"/>
        </g>
      </g>
      <g id="fieldline12">
        <path d="M 1.0000,0.0000 L 0.8066,-0.1038 L 0.6969,-0.1604 L 0.6097,-0.2028 L 0.5340,-0.2372 L 0.4659,-0.2655 L 0.4029,-0.2891 L 0.3436,-0.3088 L 0.2870,-0.3250 L 0.2324,-0.3382 L 0.1794,-0.3484 L 0.1274,-0.3560 L 0.0762,-0.3610 L 0.0253,-0.3635 L -0.0253,-0.3635 L -0.0762,-0.3610 L -0.1274,-0.3560 L -0.1794,-0.3485 L -0.2324,-0.3382 L -0.2870,-0.3250 L -0.3436,-0.3088 L -0.4028,-0.2891 L -0.4658,-0.2655 L -0.5340,-0.2372 L -0.6097,-0.2028 L -0.6969,-0.1604 L -0.8066,-0.1038 L -1.0000,0.0000"/>
        <g id="arrows12">
          <use xlink:href="#arrow1" transform="translate(0.0000,-0.3632) rotate(179.06) scale(2.0)"/>
        </g>
      </g>
      <g id="fieldline13">
        <path d="M 1.0000,0.0000 L 0.8664,-0.1440 L 0.7869,-0.2265 L 0.7217,-0.2910 L 0.6633,-0.3453 L 0.6094,-0.3921 L 0.5585,-0.4332 L 0.5097,-0.4693 L 0.4624,-0.5014 L 0.4162,-0.5296 L 0.3709,-0.5545 L 0.3261,-0.5761 L 0.2819,-0.5947 L 0.2380,-0.6105 L 0.1944,-0.6235 L 0.1510,-0.6338 L 0.1078,-0.6415 L 0.0646,-0.6466 L 0.0216,-0.6492 L -0.0215,-0.6492 L -0.0647,-0.6466 L -0.1077,-0.6415 L -0.1510,-0.6338 L -0.1944,-0.6235 L -0.2380,-0.6105 L -0.2819,-0.5947 L -0.3261,-0.5761 L -0.3709,-0.5545 L -0.4162,-0.5296 L -0.4624,-0.5014 L -0.5097,-0.4693 L -0.5585,-0.4332 L -0.6094,-0.3921 L -0.6633,-0.3453 L -0.7217,-0.2910 L -0.7869,-0.2265 L -0.8664,-0.1440 L -1.0000,0.0000"/>
        <g id="arrows13">
          <use xlink:href="#arrow1" transform="translate(0.0000,-0.6487) rotate(178.69) scale(2.0)"/>
        </g>
      </g>
      <g id="fieldline14">
        <path d="M 1.0000,0.0000 L 0.9240,-0.1713 L 0.8761,-0.2738 L 0.8346,-0.3572 L 0.7960,-0.4294 L 0.7588,-0.4937 L 0.7223,-0.5520 L 0.6860,-0.6052 L 0.6497,-0.6541 L 0.6131,-0.6991 L 0.5762,-0.7406 L 0.5389,-0.7788 L 0.5012,-0.8138 L 0.4630,-0.8458 L 0.4244,-0.8749 L 0.3854,-0.9012 L 0.3459,-0.9247 L 0.3061,-0.9455 L 0.2660,-0.9636 L 0.2256,-0.9790 L 0.1849,-0.9919 L 0.1440,-1.0021 L 0.1030,-1.0098 L 0.0619,-1.0149 L 0.0206,-1.0175 L -0.0206,-1.0175 L -0.0618,-1.0149 L -0.1030,-1.0098 L -0.1440,-1.0021 L -0.1849,-0.9919 L -0.2256,-0.9790 L -0.2660,-0.9636 L -0.3061,-0.9455 L -0.3460,-0.9247 L -0.3854,-0.9012 L -0.4244,-0.8749 L -0.4630,-0.8458 L -0.5012,-0.8138 L -0.5389,-0.7788 L -0.5762,-0.7406 L -0.6131,-0.6991 L -0.6497,-0.6541 L -0.6861,-0.6052 L -0.7223,-0.5520 L -0.7588,-0.4937 L -0.7960,-0.4294 L -0.8346,-0.3572 L -0.8762,-0.2738 L -0.9240,-0.1713 L -1.0000,0.0000"/>
        <g id="arrows14">
          <use xlink:href="#arrow1" transform="translate(0.0000,-1.0169) rotate(178.63) scale(2.0)"/>
        </g>
      </g>
      <g id="fieldline15">
        <path d="M 1.0000,0.0000 L 0.9839,-0.1847 L 0.9717,-0.3001 L 0.9591,-0.3971 L 0.9455,-0.4834 L 0.9305,-0.5627 L 0.9142,-0.6365 L 0.8962,-0.7059 L 0.8768,-0.7716 L 0.8557,-0.8340 L 0.8331,-0.8933 L 0.8090,-0.9497 L 0.7833,-1.0035 L 0.7561,-1.0546 L 0.7276,-1.1032 L 0.6976,-1.1492 L 0.6663,-1.1928 L 0.6337,-1.2338 L 0.5999,-1.2725 L 0.5651,-1.3086 L 0.5291,-1.3422 L 0.4922,-1.3734 L 0.4543,-1.4021 L 0.4157,-1.4284 L 0.3762,-1.4521 L 0.3361,-1.4734 L 0.2954,-1.4921 L 0.2542,-1.5084 L 0.2125,-1.5221 L 0.1704,-1.5334 L 0.1281,-1.5421 L 0.0855,-1.5484 L 0.0428,-1.5521 L -0.0000,-1.5534 L -0.0428,-1.5521 L -0.0855,-1.5484 L -0.1281,-1.5421 L -0.1704,-1.5334 L -0.2125,-1.5221 L -0.2542,-1.5084 L -0.2954,-1.4921 L -0.3361,-1.4734 L -0.3762,-1.4521 L -0.4157,-1.4284 L -0.4543,-1.4021 L -0.4922,-1.3734 L -0.5291,-1.3422 L -0.5651,-1.3086 L -0.6000,-1.2724 L -0.6337,-1.2338 L -0.6663,-1.1928 L -0.6976,-1.1492 L -0.7276,-1.1032 L -0.7561,-1.0546 L -0.7833,-1.0035 L -0.8090,-0.9497 L -0.8331,-0.8933 L -0.8557,-0.8340 L -0.8768,-0.7716 L -0.8962,-0.7059 L -0.9142,-0.6365 L -0.9305,-0.5627 L -0.9455,-0.4835 L -0.9591,-0.3971 L -0.9717,-0.3001 L -0.9839,-0.1847 L -1.0000,0.0000"/>
        <g id="arrows15">
          <use xlink:href="#arrow1" transform="translate(0.0000,-1.5524) rotate(179.05) scale(2.0)"/>
        </g>
      </g>
      <g id="fieldline16">
        <path d="M 1.0000,0.0000 L 1.0466,-0.1874 L 1.0746,-0.3093 L 1.0965,-0.4150 L 1.1140,-0.5119 L 1.1280,-0.6030 L 1.1388,-0.6900 L 1.1467,-0.7739 L 1.1518,-0.8552 L 1.1543,-0.9343 L 1.1542,-1.0113 L 1.1515,-1.0866 L 1.1464,-1.1601 L 1.1389,-1.2319 L 1.1290,-1.3021 L 1.1168,-1.3705 L 1.1023,-1.4373 L 1.0856,-1.5023 L 1.0667,-1.5656 L 1.0458,-1.6271 L 1.0228,-1.6868 L 0.9978,-1.7445 L 0.9708,-1.8003 L 0.9421,-1.8542 L 0.9115,-1.9059 L 0.8793,-1.9556 L 0.8454,-2.0031 L 0.8100,-2.0484 L 0.7730,-2.0916 L 0.7347,-2.1324 L 0.6951,-2.1709 L 0.6543,-2.2071 L 0.6123,-2.2409 L 0.5693,-2.2723 L 0.5252,-2.3013 L 0.4803,-2.3278 L 0.4346,-2.3518 L 0.3881,-2.3734 L 0.3410,-2.3924 L 0.2933,-2.4089 L 0.2452,-2.4230 L 0.1966,-2.4344 L 0.1477,-2.4434 L 0.0986,-2.4497 L 0.0494,-2.4536 L -0.0000,-2.4549 L -0.0493,-2.4536 L -0.0986,-2.4497 L -0.1477,-2.4434 L -0.1966,-2.4344 L -0.2452,-2.4230 L -0.2933,-2.4090 L -0.3410,-2.3924 L -0.3881,-2.3734 L -0.4346,-2.3518 L -0.4803,-2.3278 L -0.5252,-2.3012 L -0.5692,-2.2723 L -0.6123,-2.2409 L -0.6543,-2.2071 L -0.6951,-2.1709 L -0.7347,-2.1324 L -0.7730,-2.0916 L -0.8100,-2.0485 L -0.8454,-2.0031 L -0.8793,-1.9556 L -0.9115,-1.9059 L -0.9421,-1.8542 L -0.9708,-1.8004 L -0.9978,-1.7445 L -1.0228,-1.6868 L -1.0458,-1.6271 L -1.0667,-1.5656 L -1.0856,-1.5024 L -1.1023,-1.4373 L -1.1168,-1.3705 L -1.1290,-1.3021 L -1.1389,-1.2319 L -1.1464,-1.1601 L -1.1515,-1.0866 L -1.1542,-1.0114 L -1.1543,-0.9343 L -1.1518,-0.8552 L -1.1467,-0.7739 L -1.1388,-0.6900 L -1.1280,-0.6030 L -1.1140,-0.5119 L -1.0965,-0.4150 L -1.0746,-0.3093 L -1.0466,-0.1874 L -1.0000,0.0000"/>
        <g id="arrows16">
          <use xlink:href="#arrow1" transform="translate(0.0000,-2.4541) rotate(179.43) scale(2.0)"/>
        </g>
      </g>
      <g id="fieldline17">
        <path d="M 1.0000,0.0000 L 1.1110,-0.1714 L 1.1836,-0.2874 L 1.2457,-0.3910 L 1.3013,-0.4882 L 1.3521,-0.5819 L 1.3990,-0.6733 L 1.4424,-0.7634 L 1.4828,-0.8525 L 1.5202,-0.9410 L 1.5548,-1.0291 L 1.5867,-1.1169 L 1.6159,-1.2044 L 1.6425,-1.2917 L 1.6665,-1.3788 L 1.6880,-1.4657 L 1.7069,-1.5524 L 1.7233,-1.6389 L 1.7372,-1.7250 L 1.7485,-1.8108 L 1.7574,-1.8962 L 1.7637,-1.9811 L 1.7676,-2.0654 L 1.7691,-2.1492 L 1.7681,-2.2323 L 1.7647,-2.3146 L 1.7590,-2.3961 L 1.7508,-2.4767 L 1.7403,-2.5564 L 1.7276,-2.6350 L 1.7125,-2.7125 L 1.6952,-2.7888 L 1.6757,-2.8639 L 1.6541,-2.9376 L 1.6303,-3.0100 M -1.6303,-3.0100 L -1.6541,-2.9376 L -1.6757,-2.8639 L -1.6952,-2.7888 L -1.7125,-2.7125 L -1.7276,-2.6350 L -1.7403,-2.5564 L -1.7508,-2.4767 L -1.7590,-2.3961 L -1.7647,-2.3146 L -1.7681,-2.2323 L -1.7691,-2.1492 L -1.7676,-2.0654 L -1.7637,-1.9811 L -1.7574,-1.8962 L -1.7485,-1.8108 L -1.7372,-1.7250 L -1.7233,-1.6389 L -1.7069,-1.5524 L -1.6880,-1.4657 L -1.6665,-1.3788 L -1.6425,-1.2917 L -1.6159,-1.2044 L -1.5867,-1.1168 L -1.5548,-1.0291 L -1.5202,-0.9410 L -1.4828,-0.8525 L -1.4424,-0.7634 L -1.3990,-0.6733 L -1.3521,-0.5819 L -1.3013,-0.4882 L -1.2457,-0.3910 L -1.1836,-0.2874 L -1.1110,-0.1714 L -1.0000,0.0000"/>
        <g id="arrows17">
          <use xlink:href="#arrow1" transform="translate(1.6803,-1.4353) rotate(-76.52) scale(2.0)"/>
          <use xlink:href="#arrow1" transform="translate(-1.6805,-1.4352) rotate(76.13) scale(2.0)"/>
        </g>
      </g>
      <g id="fieldline18">
        <path d="M 1.0000,0.0000 L 1.1850,-0.1450 L 1.3128,-0.2481 L 1.4260,-0.3425 L 1.5314,-0.4336 L 1.6317,-0.5236 L 1.7281,-0.6134 L 1.8214,-0.7037 L 1.9120,-0.7949 L 2.0002,-0.8872 L 2.0861,-0.9808 L 2.1698,-1.0757 L 2.2514,-1.1720 L 2.3309,-1.2697 L 2.4084,-1.3689 L 2.4839,-1.4696 L 2.5572,-1.5716 L 2.6285,-1.6751 L 2.6977,-1.7800 L 2.7647,-1.8862 L 2.8296,-1.9936 L 2.8923,-2.1024 L 2.9528,-2.2123 L 3.0110,-2.3233 L 3.0670,-2.4354 L 3.1206,-2.5486 L 3.1720,-2.6626 L 3.2209,-2.7776 L 3.2675,-2.8934 L 3.3117,-3.0100 M -3.3117,-3.0100 L -3.2675,-2.8934 L -3.2209,-2.7776 L -3.1720,-2.6626 L -3.1206,-2.5486 L -3.0670,-2.4354 L -3.0110,-2.3233 L -2.9528,-2.2123 L -2.8923,-2.1024 L -2.8296,-1.9936 L -2.7647,-1.8862 L -2.6977,-1.7800 L -2.6285,-1.6751 L -2.5572,-1.5716 L -2.4839,-1.4696 L -2.4084,-1.3689 L -2.3310,-1.2697 L -2.2514,-1.1720 L -2.1698,-1.0757 L -2.0861,-0.9808 L -2.0002,-0.8872 L -1.9120,-0.7949 L -1.8214,-0.7037 L -1.7281,-0.6134 L -1.6317,-0.5236 L -1.5314,-0.4336 L -1.4260,-0.3425 L -1.3128,-0.2481 L -1.1850,-0.1450 L -1.0000,0.0000"/>
        <g id="arrows18">
          <use xlink:href="#arrow1" transform="translate(2.3807,-1.3335) rotate(-52.08) scale(2.0)"/>
          <use xlink:href="#arrow1" transform="translate(-2.3808,-1.3335) rotate(52.01) scale(2.0)"/>
        </g>
      </g>
      <g id="fieldline19">
        <path d="M 1.0000,0.0000 L 1.2748,-0.0951 L 1.4739,-0.1663 L 1.6564,-0.2339 L 1.8316,-0.3013 L 2.0030,-0.3696 L 2.1722,-0.4395 L 2.3403,-0.5114 L 2.5076,-0.5855 L 2.6746,-0.6620 L 2.8414,-0.7409 L 3.0082,-0.8224 L 3.1751,-0.9064 L 3.3419,-0.9931 L 3.5089,-1.0824 L 3.6759,-1.1744 L 3.8430,-1.2690 L 4.0100,-1.3662 M -4.0100,-1.3662 L -3.8430,-1.2690 L -3.6759,-1.1744 L -3.5089,-1.0824 L -3.3419,-0.9931 L -3.1751,-0.9064 L -3.0082,-0.8224 L -2.8414,-0.7409 L -2.6746,-0.6620 L -2.5076,-0.5855 L -2.3403,-0.5114 L -2.1722,-0.4395 L -2.0030,-0.3696 L -1.8316,-0.3013 L -1.6564,-0.2339 L -1.4739,-0.1663 L -1.2748,-0.0951 L -1.0000,0.0000"/>
        <g id="arrows19">
          <use xlink:href="#arrow1" transform="translate(2.5422,-0.6013) rotate(-24.61) scale(2.0)"/>
          <use xlink:href="#arrow1" transform="translate(-2.5422,-0.6014) rotate(24.49) scale(2.0)"/>
        </g>
      </g>
      <g id="fieldline20">
        <path d="M 1.0000,0.0000 L 4.0100,-0.0000"/>
        <g id="arrows20">
          <use xlink:href="#arrow1" transform="translate(2.5050,-0.0000) rotate(-0.00) scale(2.0)"/>
        </g>
      </g>
    </g>
    <g id="symbols">
      <g id="charge1" transform="translate(1.0,0.0) scale(0.01,0.01)">
        <circle style="fill:#ff0000; stroke:none" cx="0" cy="0" r="14"/>
        <circle cx="0" cy="0" r="14" style="fill:url(#white_spot); stroke:#000000; stroke-width:2"/>
        <path d="M 2,2 V 8 H -2 V 2 H -8 V -2 H -2 V -8 H 2 V -2 H 8 V 2 H 2 Z" style="fill:#000000; stroke:none"/>
      </g>
      <g id="charge2" transform="translate(-1.0,0.0) scale(0.01,0.01)">
        <circle style="fill:#0000ff; stroke:none" cx="0" cy="0" r="14"/>
        <circle cx="0" cy="0" r="14" style="fill:url(#white_spot); stroke:#000000; stroke-width:2"/>
        <path d="M 8,2 H -8 V -2 H 8 V 2 Z" style="fill:#000000; stroke:none"/>
      </g>
    </g>
  </g>
</svg>
