<?xml version='1.0' encoding='utf-8'?>
<svg xmlns:xlink="http://www.w3.org/1999/xlink" xmlns="http://www.w3.org/2000/svg" version="1.1" baseProfile="full" width="800" height="600">
  <title>ElectricDipole2</title>
  <desc>ElectricDipole2
created with VectorFieldPlot 1.3
http://commons.wikimedia.org/wiki/User:Geek3/VectorFieldPlot
rights: GNU Free Documentation license,
        Creative Commons Attribution ShareAlike license
  </desc>
  <defs>
    <path id="arrow1" stroke="none" fill="#000000" transform="scale(0.01)" d="M 0.3,0 L -2.2,2.25 L 3.8,0 L -2.2,-2.25 L 0.3,0 Z"/>
  </defs>
  <rect id="background" x="0" y="0" width="800" height="600" fill="#ffffff"/>
  <g id="image" transform="translate(400.0,300.0) scale(100.0,-100.0)">
    <g id="fieldlines" fill="none" stroke="#000000" stroke-width="0.02" stroke-linejoin="round" stroke-linecap="round">
      <g id="fieldline1">
        <path d="M 0.0000,-0.1000 L -0.0090,-0.0988 L -0.0175,-0.0952 L -0.0251,-0.0892 L -0.0313,-0.0812 L -0.0358,-0.0714 L -0.0382,-0.0603 L -0.0382,-0.0484 L -0.0357,-0.0365 L -0.0309,-0.0252 L -0.0241,-0.0152 L -0.0158,-0.0072 L -0.0071,-0.0020 L 0.0000,0.0000"/>
        <g id="arrows1">
          <use xlink:href="#arrow1" transform="translate(-0.0298,-0.0540) rotate(74.52) scale(2.0)"/>
        </g>
      </g>
      <g id="fieldline2">
        <path d="M 0.0032,-0.0999 L -0.0054,-0.0997 L -0.0138,-0.0972 L -0.0215,-0.0925 L -0.0282,-0.0859 L -0.0335,-0.0774 L -0.0370,-0.0675 L -0.0385,-0.0566 L -0.0378,-0.0452 L -0.0349,-0.0339 L -0.0299,-0.0233 L -0.0231,-0.0140 L -0.0151,-0.0067 L -0.0068,-0.0019 L 0.0000,0.0000"/>
        <g id="arrows2">
          <use xlink:href="#arrow1" transform="translate(-0.0297,-0.0555) rotate(76.09) scale(2.0)"/>
        </g>
      </g>
      <g id="fieldline3">
        <path d="M 0.0063,-0.0998 L -0.0025,-0.1003 L -0.0112,-0.0985 L -0.0194,-0.0943 L -0.0266,-0.0880 L -0.0325,-0.0798 L -0.0365,-0.0699 L -0.0385,-0.0588 L -0.0382,-0.0471 L -0.0355,-0.0354 L -0.0305,-0.0243 L -0.0237,-0.0147 L -0.0155,-0.0070 L -0.0069,-0.0019 L 0.0000,0.0000"/>
        <g id="arrows3">
          <use xlink:href="#arrow1" transform="translate(-0.0298,-0.0570) rotate(77.71) scale(2.0)"/>
        </g>
      </g>
      <g id="fieldline4">
        <path d="M 0.0095,-0.0995 L 0.0005,-0.1009 L -0.0086,-0.0998 L -0.0173,-0.0962 L -0.0250,-0.0903 L -0.0314,-0.0823 L -0.0360,-0.0724 L -0.0385,-0.0612 L -0.0386,-0.0492 L -0.0361,-0.0371 L -0.0313,-0.0256 L -0.0244,-0.0155 L -0.0161,-0.0074 L -0.0073,-0.0021 L 0.0000,0.0000"/>
        <g id="arrows4">
          <use xlink:href="#arrow1" transform="translate(-0.0298,-0.0586) rotate(79.38) scale(2.0)"/>
        </g>
      </g>
      <g id="fieldline5">
        <path d="M 0.0127,-0.0992 L 0.0040,-0.1014 L -0.0047,-0.1013 L -0.0133,-0.0989 L -0.0213,-0.0943 L -0.0282,-0.0877 L -0.0337,-0.0792 L -0.0374,-0.0691 L -0.0391,-0.0580 L -0.0384,-0.0463 L -0.0355,-0.0347 L -0.0304,-0.0239 L -0.0235,-0.0144 L -0.0154,-0.0068 L -0.0068,-0.0019 L 0.0000,0.0000"/>
        <g id="arrows5">
          <use xlink:href="#arrow1" transform="translate(-0.0302,-0.0604) rotate(81.06) scale(2.0)"/>
        </g>
      </g>
      <g id="fieldline6">
        <path d="M 0.0158,-0.0987 L 0.0071,-0.1018 L -0.0020,-0.1025 L -0.0110,-0.1008 L -0.0194,-0.0967 L -0.0269,-0.0903 L -0.0329,-0.0819 L -0.0372,-0.0718 L -0.0393,-0.0605 L -0.0390,-0.0485 L -0.0363,-0.0365 L -0.0313,-0.0251 L -0.0243,-0.0152 L -0.0159,-0.0072 L -0.0072,-0.0020 L 0.0000,0.0000"/>
        <g id="arrows6">
          <use xlink:href="#arrow1" transform="translate(-0.0304,-0.0623) rotate(82.77) scale(2.0)"/>
        </g>
      </g>
      <g id="fieldline7">
        <path d="M 0.0189,-0.0982 L 0.0107,-0.1020 L 0.0020,-0.1037 L -0.0068,-0.1030 L -0.0153,-0.1002 L -0.0231,-0.0952 L -0.0298,-0.0881 L -0.0351,-0.0793 L -0.0385,-0.0690 L -0.0399,-0.0578 L -0.0390,-0.0461 L -0.0359,-0.0345 L -0.0307,-0.0237 L -0.0236,-0.0142 L -0.0154,-0.0068 L -0.0069,-0.0019 L 0.0000,0.0000"/>
        <g id="arrows7">
          <use xlink:href="#arrow1" transform="translate(-0.0305,-0.0644) rotate(84.57) scale(2.0)"/>
        </g>
      </g>
      <g id="fieldline8">
        <path d="M 0.0220,-0.0975 L 0.0138,-0.1023 L 0.0049,-0.1048 L -0.0043,-0.1048 L -0.0132,-0.1025 L -0.0215,-0.0979 L -0.0288,-0.0911 L -0.0346,-0.0824 L -0.0386,-0.0720 L -0.0404,-0.0605 L -0.0398,-0.0484 L -0.0369,-0.0364 L -0.0317,-0.0250 L -0.0246,-0.0151 L -0.0161,-0.0072 L -0.0073,-0.0020 L 0.0000,0.0000"/>
        <g id="arrows8">
          <use xlink:href="#arrow1" transform="translate(-0.0308,-0.0666) rotate(86.37) scale(2.0)"/>
        </g>
      </g>
      <g id="fieldline9">
        <path d="M 0.0251,-0.0968 L 0.0169,-0.1025 L 0.0078,-0.1059 L -0.0017,-0.1067 L -0.0111,-0.1050 L -0.0199,-0.1008 L -0.0278,-0.0942 L -0.0341,-0.0855 L -0.0386,-0.0750 L -0.0409,-0.0632 L -0.0406,-0.0507 L -0.0379,-0.0381 L -0.0327,-0.0263 L -0.0254,-0.0158 L -0.0166,-0.0075 L -0.0075,-0.0021 L 0.0000,0.0000"/>
        <g id="arrows9">
          <use xlink:href="#arrow1" transform="translate(-0.0311,-0.0691) rotate(88.24) scale(2.0)"/>
        </g>
      </g>
      <g id="fieldline10">
        <path d="M 0.0282,-0.0959 L 0.0205,-0.1024 L 0.0119,-0.1066 L 0.0027,-0.1085 L -0.0066,-0.1080 L -0.0155,-0.1052 L -0.0238,-0.1000 L -0.0310,-0.0927 L -0.0366,-0.0834 L -0.0403,-0.0727 L -0.0418,-0.0609 L -0.0409,-0.0485 L -0.0377,-0.0363 L -0.0322,-0.0249 L -0.0248,-0.0149 L -0.0161,-0.0071 L -0.0072,-0.0020 L 0.0000,0.0000"/>
        <g id="arrows10">
          <use xlink:href="#arrow1" transform="translate(-0.0317,-0.0719) rotate(90.24) scale(2.0)"/>
        </g>
      </g>
      <g id="fieldline11">
        <path d="M 0.0312,-0.0950 L 0.0237,-0.1025 L 0.0150,-0.1076 L 0.0056,-0.1104 L -0.0041,-0.1106 L -0.0136,-0.1082 L -0.0224,-0.1034 L -0.0301,-0.0963 L -0.0363,-0.0871 L -0.0406,-0.0761 L -0.0425,-0.0640 L -0.0420,-0.0512 L -0.0389,-0.0384 L -0.0334,-0.0264 L -0.0259,-0.0159 L -0.0169,-0.0076 L -0.0076,-0.0021 L 0.0000,0.0000"/>
        <g id="arrows11">
          <use xlink:href="#arrow1" transform="translate(-0.0321,-0.0748) rotate(92.23) scale(2.0)"/>
        </g>
      </g>
      <g id="fieldline12">
        <path d="M 0.0342,-0.0940 L 0.0273,-0.1021 L 0.0191,-0.1081 L 0.0101,-0.1119 L 0.0007,-0.1132 L -0.0088,-0.1122 L -0.0179,-0.1088 L -0.0262,-0.1031 L -0.0333,-0.0952 L -0.0388,-0.0855 L -0.0423,-0.0743 L -0.0436,-0.0621 L -0.0425,-0.0494 L -0.0389,-0.0369 L -0.0331,-0.0253 L -0.0255,-0.0152 L -0.0166,-0.0072 L -0.0074,-0.0020 L 0.0000,0.0000"/>
        <g id="arrows12">
          <use xlink:href="#arrow1" transform="translate(-0.0325,-0.0780) rotate(94.17) scale(2.0)"/>
        </g>
      </g>
      <g id="fieldline13">
        <path d="M 0.0372,-0.0928 L 0.0305,-0.1020 L 0.0224,-0.1090 L 0.0133,-0.1137 L 0.0035,-0.1159 L -0.0065,-0.1155 L -0.0161,-0.1125 L -0.0251,-0.1071 L -0.0328,-0.0994 L -0.0388,-0.0896 L -0.0429,-0.0782 L -0.0446,-0.0656 L -0.0438,-0.0524 L -0.0405,-0.0394 L -0.0347,-0.0271 L -0.0269,-0.0164 L -0.0177,-0.0079 L -0.0081,-0.0022 L 0.0000,0.0000"/>
        <g id="arrows13">
          <use xlink:href="#arrow1" transform="translate(-0.0330,-0.0816) rotate(96.26) scale(2.0)"/>
        </g>
      </g>
      <g id="fieldline14">
        <path d="M 0.0401,-0.0916 L 0.0342,-0.1014 L 0.0266,-0.1093 L 0.0179,-0.1149 L 0.0084,-0.1183 L -0.0014,-0.1191 L -0.0112,-0.1175 L -0.0205,-0.1135 L -0.0289,-0.1072 L -0.0361,-0.0988 L -0.0415,-0.0885 L -0.0448,-0.0767 L -0.0459,-0.0639 L -0.0444,-0.0508 L -0.0406,-0.0379 L -0.0345,-0.0260 L -0.0264,-0.0156 L -0.0172,-0.0074 L -0.0077,-0.0021 L 0.0000,0.0000"/>
        <g id="arrows14">
          <use xlink:href="#arrow1" transform="translate(-0.0336,-0.0855) rotate(98.61) scale(2.0)"/>
        </g>
      </g>
      <g id="fieldline15">
        <path d="M 0.0430,-0.0903 L 0.0377,-0.1007 L 0.0308,-0.1094 L 0.0226,-0.1160 L 0.0135,-0.1204 L 0.0038,-0.1225 L -0.0060,-0.1222 L -0.0156,-0.1196 L -0.0246,-0.1146 L -0.0326,-0.1075 L -0.0391,-0.0984 L -0.0439,-0.0877 L -0.0466,-0.0756 L -0.0471,-0.0628 L -0.0452,-0.0497 L -0.0409,-0.0370 L -0.0345,-0.0252 L -0.0263,-0.0151 L -0.0170,-0.0072 L -0.0076,-0.0020 L 0.0000,0.0000"/>
        <g id="arrows15">
          <use xlink:href="#arrow1" transform="translate(-0.0342,-0.0898) rotate(100.66) scale(2.0)"/>
        </g>
      </g>
      <g id="fieldline16">
        <path d="M 0.0458,-0.0889 L 0.0410,-0.1004 L 0.0343,-0.1102 L 0.0261,-0.1178 L 0.0167,-0.1232 L 0.0066,-0.1261 L -0.0037,-0.1264 L -0.0139,-0.1243 L -0.0235,-0.1196 L -0.0321,-0.1126 L -0.0393,-0.1034 L -0.0447,-0.0924 L -0.0479,-0.0799 L -0.0487,-0.0664 L -0.0469,-0.0527 L -0.0427,-0.0393 L -0.0361,-0.0268 L -0.0276,-0.0161 L -0.0179,-0.0076 L -0.0080,-0.0021 L 0.0000,0.0000"/>
        <g id="arrows16">
          <use xlink:href="#arrow1" transform="translate(-0.0349,-0.0945) rotate(102.95) scale(2.0)"/>
        </g>
      </g>
      <g id="fieldline17">
        <path d="M 0.0486,-0.0874 L 0.0446,-0.0995 L 0.0386,-0.1100 L 0.0310,-0.1186 L 0.0221,-0.1251 L 0.0123,-0.1292 L 0.0020,-0.1309 L -0.0083,-0.1302 L -0.0183,-0.1270 L -0.0276,-0.1214 L -0.0358,-0.1136 L -0.0425,-0.1037 L -0.0473,-0.0922 L -0.0500,-0.0794 L -0.0502,-0.0658 L -0.0480,-0.0521 L -0.0433,-0.0387 L -0.0365,-0.0264 L -0.0278,-0.0158 L -0.0180,-0.0075 L -0.0081,-0.0021 L 0.0000,0.0000"/>
        <g id="arrows17">
          <use xlink:href="#arrow1" transform="translate(-0.0355,-0.0997) rotate(105.48) scale(2.0)"/>
        </g>
      </g>
      <g id="fieldline18">
        <path d="M 0.0514,-0.0858 L 0.0482,-0.0984 L 0.0429,-0.1097 L 0.0359,-0.1193 L 0.0274,-0.1268 L 0.0179,-0.1322 L 0.0078,-0.1352 L -0.0026,-0.1358 L -0.0129,-0.1340 L -0.0228,-0.1298 L -0.0318,-0.1233 L -0.0396,-0.1148 L -0.0458,-0.1043 L -0.0500,-0.0923 L -0.0521,-0.0791 L -0.0518,-0.0654 L -0.0491,-0.0515 L -0.0440,-0.0382 L -0.0369,-0.0260 L -0.0280,-0.0155 L -0.0180,-0.0074 L -0.0081,-0.0021 L 0.0000,0.0000"/>
        <g id="arrows18">
          <use xlink:href="#arrow1" transform="translate(-0.0363,-0.1054) rotate(107.72) scale(2.0)"/>
        </g>
      </g>
      <g id="fieldline19">
        <path d="M 0.0541,-0.0841 L 0.0517,-0.0973 L 0.0472,-0.1093 L 0.0408,-0.1198 L 0.0329,-0.1284 L 0.0238,-0.1350 L 0.0139,-0.1392 L 0.0034,-0.1412 L -0.0071,-0.1408 L -0.0174,-0.1380 L -0.0271,-0.1329 L -0.0359,-0.1256 L -0.0433,-0.1163 L -0.0490,-0.1053 L -0.0528,-0.0928 L -0.0544,-0.0793 L -0.0536,-0.0653 L -0.0504,-0.0514 L -0.0450,-0.0380 L -0.0375,-0.0258 L -0.0284,-0.0154 L -0.0183,-0.0074 L -0.0082,-0.0021 L 0.0000,0.0000"/>
        <g id="arrows19">
          <use xlink:href="#arrow1" transform="translate(-0.0370,-0.1117) rotate(110.41) scale(2.0)"/>
        </g>
      </g>
      <g id="fieldline20">
        <path d="M 0.0567,-0.0824 L 0.0551,-0.0967 L 0.0511,-0.1099 L 0.0450,-0.1216 L 0.0370,-0.1314 L 0.0277,-0.1390 L 0.0174,-0.1442 L 0.0064,-0.1470 L -0.0048,-0.1472 L -0.0158,-0.1448 L -0.0263,-0.1399 L -0.0358,-0.1327 L -0.0439,-0.1232 L -0.0503,-0.1117 L -0.0546,-0.0987 L -0.0566,-0.0845 L -0.0561,-0.0697 L -0.0530,-0.0549 L -0.0474,-0.0406 L -0.0396,-0.0276 L -0.0300,-0.0165 L -0.0193,-0.0078 L -0.0087,-0.0022 L 0.0000,0.0000"/>
        <g id="arrows20">
          <use xlink:href="#arrow1" transform="translate(-0.0377,-0.1186) rotate(112.87) scale(2.0)"/>
        </g>
      </g>
      <g id="fieldline21">
        <path d="M 0.0593,-0.0805 L 0.0586,-0.0954 L 0.0555,-0.1094 L 0.0502,-0.1220 L 0.0429,-0.1329 L 0.0340,-0.1418 L 0.0240,-0.1484 L 0.0131,-0.1525 L 0.0018,-0.1542 L -0.0096,-0.1533 L -0.0206,-0.1499 L -0.0310,-0.1441 L -0.0402,-0.1360 L -0.0481,-0.1257 L -0.0540,-0.1135 L -0.0579,-0.0999 L -0.0593,-0.0853 L -0.0583,-0.0701 L -0.0547,-0.0551 L -0.0487,-0.0407 L -0.0405,-0.0277 L -0.0306,-0.0165 L -0.0197,-0.0079 L -0.0089,-0.0022 L 0.0000,0.0000"/>
        <g id="arrows21">
          <use xlink:href="#arrow1" transform="translate(-0.0386,-0.1263) rotate(115.46) scale(2.0)"/>
        </g>
      </g>
      <g id="fieldline22">
        <path d="M 0.0618,-0.0786 L 0.0621,-0.0940 L 0.0599,-0.1087 L 0.0554,-0.1223 L 0.0489,-0.1343 L 0.0405,-0.1444 L 0.0308,-0.1524 L 0.0201,-0.1580 L 0.0088,-0.1611 L -0.0029,-0.1618 L -0.0144,-0.1599 L -0.0255,-0.1555 L -0.0358,-0.1487 L -0.0449,-0.1397 L -0.0523,-0.1286 L -0.0579,-0.1158 L -0.0613,-0.1015 L -0.0623,-0.0864 L -0.0607,-0.0709 L -0.0567,-0.0556 L -0.0502,-0.0411 L -0.0416,-0.0279 L -0.0314,-0.0167 L -0.0202,-0.0080 L -0.0092,-0.0023 L 0.0000,0.0000"/>
        <g id="arrows22">
          <use xlink:href="#arrow1" transform="translate(-0.0393,-0.1349) rotate(118.16) scale(2.0)"/>
        </g>
      </g>
      <g id="fieldline23">
        <path d="M 0.0643,-0.0766 L 0.0656,-0.0925 L 0.0644,-0.1080 L 0.0608,-0.1226 L 0.0549,-0.1357 L 0.0472,-0.1471 L 0.0379,-0.1564 L 0.0274,-0.1635 L 0.0161,-0.1681 L 0.0042,-0.1703 L -0.0078,-0.1699 L -0.0195,-0.1670 L -0.0307,-0.1616 L -0.0408,-0.1539 L -0.0497,-0.1439 L -0.0569,-0.1319 L -0.0621,-0.1183 L -0.0650,-0.1035 L -0.0655,-0.0878 L -0.0634,-0.0718 L -0.0588,-0.0562 L -0.0518,-0.0414 L -0.0428,-0.0280 L -0.0322,-0.0167 L -0.0206,-0.0079 L -0.0093,-0.0023 L 0.0000,0.0000"/>
        <g id="arrows23">
          <use xlink:href="#arrow1" transform="translate(-0.0403,-0.1445) rotate(120.97) scale(2.0)"/>
        </g>
      </g>
      <g id="fieldline24">
        <path d="M 0.0667,-0.0745 L 0.0691,-0.0910 L 0.0689,-0.1072 L 0.0662,-0.1227 L 0.0612,-0.1370 L 0.0542,-0.1497 L 0.0454,-0.1604 L 0.0351,-0.1690 L 0.0238,-0.1752 L 0.0119,-0.1789 L -0.0005,-0.1800 L -0.0128,-0.1787 L -0.0247,-0.1748 L -0.0360,-0.1684 L -0.0461,-0.1597 L -0.0548,-0.1488 L -0.0617,-0.1360 L -0.0665,-0.1216 L -0.0690,-0.1060 L -0.0690,-0.0897 L -0.0664,-0.0733 L -0.0613,-0.0572 L -0.0538,-0.0421 L -0.0443,-0.0285 L -0.0332,-0.0170 L -0.0212,-0.0081 L -0.0096,-0.0023 L 0.0000,0.0000"/>
        <g id="arrows24">
          <use xlink:href="#arrow1" transform="translate(-0.0409,-0.1550) rotate(123.71) scale(2.0)"/>
        </g>
      </g>
      <g id="fieldline25">
        <path d="M 0.0690,-0.0724 L 0.0725,-0.0888 L 0.0735,-0.1052 L 0.0721,-0.1212 L 0.0684,-0.1363 L 0.0626,-0.1500 L 0.0550,-0.1621 L 0.0458,-0.1724 L 0.0353,-0.1805 L 0.0239,-0.1863 L 0.0118,-0.1898 L -0.0005,-0.1909 L -0.0129,-0.1896 L -0.0249,-0.1859 L -0.0362,-0.1799 L -0.0466,-0.1716 L -0.0557,-0.1612 L -0.0632,-0.1489 L -0.0688,-0.1350 L -0.0723,-0.1199 L -0.0735,-0.1039 L -0.0723,-0.0874 L -0.0686,-0.0710 L -0.0626,-0.0552 L -0.0545,-0.0405 L -0.0445,-0.0273 L -0.0332,-0.0162 L -0.0211,-0.0077 L -0.0096,-0.0022 L 0.0000,0.0000"/>
        <g id="arrows25">
          <use xlink:href="#arrow1" transform="translate(-0.0417,-0.1669) rotate(126.55) scale(2.0)"/>
        </g>
      </g>
      <g id="fieldline26">
        <path d="M 0.0713,-0.0701 L 0.0759,-0.0871 L 0.0781,-0.1043 L 0.0777,-0.1212 L 0.0750,-0.1374 L 0.0700,-0.1525 L 0.0630,-0.1661 L 0.0543,-0.1778 L 0.0440,-0.1875 L 0.0326,-0.1950 L 0.0204,-0.2001 L 0.0077,-0.2028 L -0.0053,-0.2030 L -0.0180,-0.2008 L -0.0304,-0.1961 L -0.0420,-0.1891 L -0.0525,-0.1798 L -0.0615,-0.1684 L -0.0689,-0.1552 L -0.0743,-0.1403 L -0.0774,-0.1243 L -0.0782,-0.1075 L -0.0765,-0.0903 L -0.0723,-0.0733 L -0.0658,-0.0569 L -0.0571,-0.0417 L -0.0465,-0.0281 L -0.0346,-0.0167 L -0.0221,-0.0080 L -0.0100,-0.0023 L 0.0000,0.0000"/>
        <g id="arrows26">
          <use xlink:href="#arrow1" transform="translate(-0.0426,-0.1804) rotate(129.37) scale(2.0)"/>
        </g>
      </g>
      <g id="fieldline27">
        <path d="M 0.0735,-0.0679 L 0.0793,-0.0854 L 0.0827,-0.1034 L 0.0836,-0.1213 L 0.0819,-0.1387 L 0.0778,-0.1552 L 0.0715,-0.1702 L 0.0632,-0.1836 L 0.0533,-0.1950 L 0.0420,-0.2041 L 0.0296,-0.2110 L 0.0165,-0.2153 L 0.0031,-0.2171 L -0.0105,-0.2165 L -0.0238,-0.2132 L -0.0365,-0.2075 L -0.0483,-0.1994 L -0.0589,-0.1890 L -0.0680,-0.1765 L -0.0752,-0.1622 L -0.0803,-0.1463 L -0.0831,-0.1293 L -0.0834,-0.1115 L -0.0812,-0.0935 L -0.0764,-0.0757 L -0.0692,-0.0586 L -0.0598,-0.0428 L -0.0486,-0.0288 L -0.0361,-0.0171 L -0.0229,-0.0081 L -0.0103,-0.0023 L 0.0000,0.0000"/>
        <g id="arrows27">
          <use xlink:href="#arrow1" transform="translate(-0.0433,-0.1954) rotate(132.49) scale(2.0)"/>
        </g>
      </g>
      <g id="fieldline28">
        <path d="M 0.0756,-0.0655 L 0.0826,-0.0830 L 0.0873,-0.1012 L 0.0896,-0.1197 L 0.0893,-0.1378 L 0.0866,-0.1553 L 0.0817,-0.1717 L 0.0747,-0.1866 L 0.0658,-0.1998 L 0.0554,-0.2110 L 0.0436,-0.2201 L 0.0310,-0.2268 L 0.0176,-0.2312 L 0.0038,-0.2331 L -0.0100,-0.2325 L -0.0236,-0.2295 L -0.0367,-0.2241 L -0.0490,-0.2163 L -0.0602,-0.2063 L -0.0700,-0.1941 L -0.0781,-0.1801 L -0.0842,-0.1645 L -0.0881,-0.1476 L -0.0897,-0.1297 L -0.0889,-0.1114 L -0.0855,-0.0930 L -0.0798,-0.0751 L -0.0717,-0.0580 L -0.0616,-0.0423 L -0.0498,-0.0284 L -0.0368,-0.0169 L -0.0233,-0.0080 L -0.0105,-0.0023 L 0.0000,0.0000"/>
        <g id="arrows28">
          <use xlink:href="#arrow1" transform="translate(-0.0441,-0.2126) rotate(135.48) scale(2.0)"/>
        </g>
      </g>
      <g id="fieldline29">
        <path d="M 0.0776,-0.0631 L 0.0859,-0.0807 L 0.0919,-0.0991 L 0.0956,-0.1181 L 0.0968,-0.1370 L 0.0956,-0.1555 L 0.0921,-0.1731 L 0.0863,-0.1896 L 0.0786,-0.2046 L 0.0691,-0.2178 L 0.0581,-0.2290 L 0.0459,-0.2381 L 0.0328,-0.2449 L 0.0190,-0.2493 L 0.0049,-0.2514 L -0.0094,-0.2510 L -0.0235,-0.2482 L -0.0371,-0.2430 L -0.0499,-0.2354 L -0.0618,-0.2257 L -0.0723,-0.2138 L -0.0813,-0.2000 L -0.0884,-0.1845 L -0.0934,-0.1676 L -0.0962,-0.1496 L -0.0967,-0.1310 L -0.0947,-0.1120 L -0.0903,-0.0932 L -0.0835,-0.0749 L -0.0745,-0.0577 L -0.0636,-0.0420 L -0.0512,-0.0281 L -0.0376,-0.0167 L -0.0238,-0.0079 L -0.0107,-0.0023 L 0.0000,0.0000"/>
        <g id="arrows29">
          <use xlink:href="#arrow1" transform="translate(-0.0449,-0.2321) rotate(138.54) scale(2.0)"/>
        </g>
      </g>
      <g id="fieldline30">
        <path d="M 0.0796,-0.0606 L 0.0894,-0.0788 L 0.0970,-0.0981 L 0.1021,-0.1182 L 0.1046,-0.1384 L 0.1046,-0.1584 L 0.1021,-0.1778 L 0.0972,-0.1961 L 0.0901,-0.2130 L 0.0810,-0.2282 L 0.0702,-0.2414 L 0.0579,-0.2525 L 0.0445,-0.2612 L 0.0302,-0.2675 L 0.0153,-0.2714 L 0.0001,-0.2727 L -0.0151,-0.2714 L -0.0300,-0.2676 L -0.0443,-0.2613 L -0.0577,-0.2526 L -0.0700,-0.2416 L -0.0809,-0.2284 L -0.0900,-0.2132 L -0.0971,-0.1963 L -0.1021,-0.1780 L -0.1046,-0.1587 L -0.1046,-0.1387 L -0.1021,-0.1185 L -0.0971,-0.0984 L -0.0895,-0.0790 L -0.0797,-0.0608 L -0.0679,-0.0442 L -0.0545,-0.0296 L -0.0401,-0.0175 L -0.0253,-0.0083 L -0.0114,-0.0024 L 0.0000,0.0000"/>
        <g id="arrows30">
          <use xlink:href="#arrow1" transform="translate(-0.0456,-0.2546) rotate(141.14) scale(2.0)"/>
        </g>
      </g>
      <g id="fieldline31">
        <path d="M 0.0815,-0.0580 L 0.0927,-0.0764 L 0.1018,-0.0961 L 0.1085,-0.1167 L 0.1127,-0.1378 L 0.1144,-0.1589 L 0.1134,-0.1797 L 0.1100,-0.1996 L 0.1043,-0.2184 L 0.0964,-0.2357 L 0.0865,-0.2512 L 0.0750,-0.2647 L 0.0620,-0.2761 L 0.0479,-0.2851 L 0.0329,-0.2916 L 0.0173,-0.2957 L 0.0015,-0.2972 L -0.0144,-0.2962 L -0.0300,-0.2926 L -0.0451,-0.2865 L -0.0594,-0.2779 L -0.0726,-0.2671 L -0.0845,-0.2539 L -0.0947,-0.2388 L -0.1030,-0.2218 L -0.1091,-0.2033 L -0.1130,-0.1835 L -0.1144,-0.1629 L -0.1132,-0.1418 L -0.1095,-0.1207 L -0.1033,-0.0999 L -0.0946,-0.0800 L -0.0838,-0.0614 L -0.0710,-0.0445 L -0.0567,-0.0297 L -0.0415,-0.0175 L -0.0260,-0.0083 L -0.0117,-0.0024 L 0.0000,0.0000"/>
        <g id="arrows31">
          <use xlink:href="#arrow1" transform="translate(-0.0463,-0.2804) rotate(144.21) scale(2.0)"/>
        </g>
      </g>
      <g id="fieldline32">
        <path d="M 0.0833,-0.0554 L 0.0958,-0.0734 L 0.1063,-0.0930 L 0.1147,-0.1137 L 0.1208,-0.1352 L 0.1243,-0.1569 L 0.1254,-0.1786 L 0.1241,-0.1998 L 0.1203,-0.2202 L 0.1144,-0.2395 L 0.1063,-0.2573 L 0.0963,-0.2735 L 0.0847,-0.2877 L 0.0716,-0.2999 L 0.0574,-0.3098 L 0.0423,-0.3174 L 0.0265,-0.3226 L 0.0103,-0.3254 L -0.0060,-0.3257 L -0.0223,-0.3236 L -0.0382,-0.3190 L -0.0536,-0.3120 L -0.0680,-0.3027 L -0.0814,-0.2911 L -0.0934,-0.2774 L -0.1039,-0.2617 L -0.1124,-0.2443 L -0.1190,-0.2254 L -0.1233,-0.2052 L -0.1253,-0.1842 L -0.1249,-0.1626 L -0.1219,-0.1408 L -0.1165,-0.1193 L -0.1088,-0.0983 L -0.0987,-0.0784 L -0.0867,-0.0599 L -0.0730,-0.0433 L -0.0579,-0.0288 L -0.0421,-0.0169 L -0.0263,-0.0080 L -0.0117,-0.0023 L 0.0000,0.0000"/>
        <g id="arrows32">
          <use xlink:href="#arrow1" transform="translate(-0.0468,-0.3102) rotate(147.23) scale(2.0)"/>
        </g>
      </g>
      <g id="fieldline33">
        <path d="M 0.0850,-0.0527 L 0.0992,-0.0710 L 0.1115,-0.0911 L 0.1217,-0.1125 L 0.1296,-0.1349 L 0.1350,-0.1579 L 0.1379,-0.1810 L 0.1383,-0.2040 L 0.1362,-0.2264 L 0.1316,-0.2478 L 0.1248,-0.2681 L 0.1158,-0.2868 L 0.1050,-0.3037 L 0.0925,-0.3186 L 0.0785,-0.3315 L 0.0634,-0.3420 L 0.0473,-0.3501 L 0.0305,-0.3558 L 0.0133,-0.3590 L -0.0041,-0.3597 L -0.0214,-0.3578 L -0.0384,-0.3535 L -0.0549,-0.3466 L -0.0706,-0.3374 L -0.0852,-0.3258 L -0.0985,-0.3120 L -0.1103,-0.2961 L -0.1203,-0.2783 L -0.1282,-0.2588 L -0.1340,-0.2380 L -0.1375,-0.2161 L -0.1385,-0.1934 L -0.1369,-0.1703 L -0.1328,-0.1472 L -0.1262,-0.1244 L -0.1172,-0.1024 L -0.1060,-0.0815 L -0.0928,-0.0623 L -0.0779,-0.0449 L -0.0617,-0.0299 L -0.0448,-0.0176 L -0.0280,-0.0083 L -0.0126,-0.0024 L 0.0000,0.0000"/>
        <g id="arrows33">
          <use xlink:href="#arrow1" transform="translate(-0.0474,-0.3453) rotate(150.19) scale(2.0)"/>
        </g>
      </g>
      <g id="fieldline34">
        <path d="M 0.0866,-0.0500 L 0.1023,-0.0682 L 0.1164,-0.0883 L 0.1285,-0.1100 L 0.1384,-0.1329 L 0.1460,-0.1567 L 0.1511,-0.1809 L 0.1536,-0.2053 L 0.1537,-0.2293 L 0.1512,-0.2528 L 0.1464,-0.2753 L 0.1393,-0.2966 L 0.1301,-0.3165 L 0.1190,-0.3345 L 0.1062,-0.3507 L 0.0919,-0.3647 L 0.0763,-0.3766 L 0.0597,-0.3861 L 0.0424,-0.3931 L 0.0245,-0.3977 L 0.0063,-0.3999 L -0.0120,-0.3995 L -0.0301,-0.3966 L -0.0479,-0.3912 L -0.0650,-0.3833 L -0.0813,-0.3731 L -0.0965,-0.3606 L -0.1104,-0.3459 L -0.1227,-0.3291 L -0.1332,-0.3104 L -0.1418,-0.2901 L -0.1482,-0.2684 L -0.1523,-0.2455 L -0.1539,-0.2219 L -0.1531,-0.1977 L -0.1497,-0.1733 L -0.1439,-0.1492 L -0.1356,-0.1256 L -0.1249,-0.1031 L -0.1122,-0.0818 L -0.0976,-0.0623 L -0.0814,-0.0448 L -0.0642,-0.0297 L -0.0464,-0.0174 L -0.0289,-0.0082 L -0.0128,-0.0024 L 0.0000,0.0000"/>
        <g id="arrows34">
          <use xlink:href="#arrow1" transform="translate(-0.0480,-0.3870) rotate(152.88) scale(2.0)"/>
        </g>
      </g>
      <g id="fieldline35">
        <path d="M 0.0881,-0.0472 L 0.1056,-0.0653 L 0.1216,-0.0856 L 0.1357,-0.1077 L 0.1478,-0.1313 L 0.1577,-0.1560 L 0.1651,-0.1814 L 0.1700,-0.2073 L 0.1723,-0.2331 L 0.1722,-0.2587 L 0.1695,-0.2836 L 0.1644,-0.3076 L 0.1570,-0.3303 L 0.1475,-0.3516 L 0.1360,-0.3712 L 0.1227,-0.3888 L 0.1079,-0.4044 L 0.0918,-0.4177 L 0.0745,-0.4288 L 0.0564,-0.4374 L 0.0376,-0.4436 L 0.0184,-0.4472 L -0.0010,-0.4483 L -0.0204,-0.4470 L -0.0396,-0.4430 L -0.0583,-0.4366 L -0.0764,-0.4277 L -0.0935,-0.4165 L -0.1095,-0.4029 L -0.1242,-0.3871 L -0.1373,-0.3692 L -0.1485,-0.3495 L -0.1579,-0.3280 L -0.1650,-0.3052 L -0.1699,-0.2811 L -0.1723,-0.2561 L -0.1722,-0.2305 L -0.1696,-0.2046 L -0.1644,-0.1788 L -0.1568,-0.1534 L -0.1467,-0.1288 L -0.1344,-0.1054 L -0.1200,-0.0835 L -0.1039,-0.0634 L -0.0863,-0.0455 L -0.0678,-0.0302 L -0.0488,-0.0177 L -0.0303,-0.0083 L -0.0135,-0.0024 L 0.0000,0.0000"/>
        <g id="arrows35">
          <use xlink:href="#arrow1" transform="translate(-0.0484,-0.4365) rotate(156.08) scale(2.0)"/>
        </g>
      </g>
      <g id="fieldline36">
        <path d="M 0.0896,-0.0444 L 0.1087,-0.0622 L 0.1265,-0.0823 L 0.1427,-0.1045 L 0.1571,-0.1283 L 0.1694,-0.1535 L 0.1794,-0.1797 L 0.1870,-0.2066 L 0.1922,-0.2339 L 0.1948,-0.2612 L 0.1949,-0.2883 L 0.1926,-0.3148 L 0.1878,-0.3404 L 0.1808,-0.3648 L 0.1715,-0.3879 L 0.1603,-0.4094 L 0.1472,-0.4292 L 0.1325,-0.4469 L 0.1164,-0.4625 L 0.0989,-0.4759 L 0.0805,-0.4870 L 0.0612,-0.4957 L 0.0413,-0.5020 L 0.0210,-0.5058 L 0.0005,-0.5071 L -0.0200,-0.5059 L -0.0403,-0.5022 L -0.0602,-0.4961 L -0.0795,-0.4875 L -0.0980,-0.4765 L -0.1155,-0.4632 L -0.1317,-0.4477 L -0.1465,-0.4301 L -0.1597,-0.4105 L -0.1710,-0.3891 L -0.1803,-0.3660 L -0.1875,-0.3416 L -0.1924,-0.3161 L -0.1949,-0.2896 L -0.1949,-0.2626 L -0.1924,-0.2353 L -0.1874,-0.2080 L -0.1799,-0.1810 L -0.1700,-0.1548 L -0.1578,-0.1295 L -0.1435,-0.1056 L -0.1273,-0.0834 L -0.1096,-0.0632 L -0.0906,-0.0452 L -0.0708,-0.0299 L -0.0508,-0.0175 L -0.0314,-0.0082 L -0.0138,-0.0023 L 0.0000,0.0000"/>
        <g id="arrows36">
          <use xlink:href="#arrow1" transform="translate(-0.0488,-0.4965) rotate(158.66) scale(2.0)"/>
        </g>
      </g>
      <g id="fieldline37">
        <path d="M 0.0910,-0.0415 L 0.1119,-0.0592 L 0.1319,-0.0793 L 0.1505,-0.1017 L 0.1674,-0.1260 L 0.1824,-0.1519 L 0.1952,-0.1791 L 0.2057,-0.2073 L 0.2138,-0.2362 L 0.2193,-0.2654 L 0.2224,-0.2948 L 0.2229,-0.3239 L 0.2210,-0.3524 L 0.2166,-0.3802 L 0.2098,-0.4069 L 0.2008,-0.4323 L 0.1897,-0.4561 L 0.1767,-0.4783 L 0.1619,-0.4986 L 0.1455,-0.5168 L 0.1278,-0.5329 L 0.1088,-0.5467 L 0.0888,-0.5581 L 0.0681,-0.5672 L 0.0467,-0.5738 L 0.0249,-0.5779 L 0.0029,-0.5795 L -0.0191,-0.5785 L -0.0409,-0.5751 L -0.0624,-0.5692 L -0.0834,-0.5608 L -0.1036,-0.5500 L -0.1228,-0.5368 L -0.1409,-0.5213 L -0.1577,-0.5036 L -0.1729,-0.4839 L -0.1864,-0.4622 L -0.1980,-0.4388 L -0.2076,-0.4138 L -0.2150,-0.3874 L -0.2200,-0.3599 L -0.2227,-0.3315 L -0.2228,-0.3026 L -0.2204,-0.2733 L -0.2155,-0.2440 L -0.2081,-0.2149 L -0.1982,-0.1865 L -0.1860,-0.1590 L -0.1716,-0.1327 L -0.1552,-0.1080 L -0.1370,-0.0851 L -0.1173,-0.0643 L -0.0966,-0.0460 L -0.0753,-0.0304 L -0.0538,-0.0177 L -0.0332,-0.0083 L -0.0147,-0.0024 L 0.0000,0.0000"/>
        <g id="arrows37">
          <use xlink:href="#arrow1" transform="translate(-0.0491,-0.5701) rotate(161.20) scale(2.0)"/>
        </g>
      </g>
      <g id="fieldline38">
        <path d="M 0.0922,-0.0386 L 0.1151,-0.0559 L 0.1372,-0.0759 L 0.1583,-0.0982 L 0.1778,-0.1227 L 0.1957,-0.1490 L 0.2115,-0.1770 L 0.2253,-0.2062 L 0.2367,-0.2364 L 0.2457,-0.2673 L 0.2523,-0.2986 L 0.2563,-0.3301 L 0.2579,-0.3614 L 0.2569,-0.3924 L 0.2534,-0.4226 L 0.2476,-0.4519 L 0.2395,-0.4801 L 0.2292,-0.5069 L 0.2168,-0.5321 L 0.2025,-0.5556 L 0.1865,-0.5772 L 0.1690,-0.5968 L 0.1500,-0.6142 L 0.1298,-0.6294 L 0.1086,-0.6422 L 0.0866,-0.6527 L 0.0639,-0.6607 L 0.0407,-0.6662 L 0.0172,-0.6693 L -0.0065,-0.6699 L -0.0301,-0.6679 L -0.0534,-0.6635 L -0.0764,-0.6566 L -0.0987,-0.6472 L -0.1204,-0.6355 L -0.1410,-0.6213 L -0.1606,-0.6049 L -0.1788,-0.5863 L -0.1955,-0.5656 L -0.2106,-0.5430 L -0.2238,-0.5185 L -0.2351,-0.4924 L -0.2442,-0.4648 L -0.2511,-0.4360 L -0.2556,-0.4061 L -0.2577,-0.3755 L -0.2573,-0.3443 L -0.2544,-0.3129 L -0.2490,-0.2814 L -0.2411,-0.2503 L -0.2307,-0.2197 L -0.2180,-0.1900 L -0.2031,-0.1615 L -0.1861,-0.1344 L -0.1673,-0.1090 L -0.1469,-0.0857 L -0.1252,-0.0646 L -0.1026,-0.0461 L -0.0796,-0.0304 L -0.0568,-0.0177 L -0.0349,-0.0083 L -0.0154,-0.0024 L 0.0000,0.0000"/>
        <g id="arrows38">
          <use xlink:href="#arrow1" transform="translate(-0.0494,-0.6620) rotate(163.67) scale(2.0)"/>
        </g>
      </g>
      <g id="fieldline39">
        <path d="M 0.0934,-0.0357 L 0.1186,-0.0528 L 0.1434,-0.0728 L 0.1673,-0.0954 L 0.1900,-0.1204 L 0.2111,-0.1475 L 0.2305,-0.1765 L 0.2478,-0.2071 L 0.2629,-0.2390 L 0.2757,-0.2720 L 0.2860,-0.3057 L 0.2939,-0.3399 L 0.2991,-0.3743 L 0.3018,-0.4087 L 0.3019,-0.4428 L 0.2995,-0.4762 L 0.2946,-0.5089 L 0.2873,-0.5406 L 0.2777,-0.5710 L 0.2659,-0.5999 L 0.2520,-0.6273 L 0.2362,-0.6528 L 0.2187,-0.6764 L 0.1995,-0.6978 L 0.1789,-0.7171 L 0.1571,-0.7342 L 0.1341,-0.7488 L 0.1102,-0.7611 L 0.0856,-0.7708 L 0.0605,-0.7781 L 0.0349,-0.7828 L 0.0091,-0.7850 L -0.0168,-0.7846 L -0.0426,-0.7817 L -0.0680,-0.7762 L -0.0930,-0.7682 L -0.1175,-0.7577 L -0.1411,-0.7447 L -0.1637,-0.7293 L -0.1852,-0.7116 L -0.2054,-0.6916 L -0.2241,-0.6695 L -0.2411,-0.6454 L -0.2564,-0.6193 L -0.2696,-0.5915 L -0.2808,-0.5621 L -0.2897,-0.5313 L -0.2963,-0.4993 L -0.3005,-0.4663 L -0.3022,-0.4326 L -0.3013,-0.3984 L -0.2978,-0.3640 L -0.2918,-0.3296 L -0.2832,-0.2956 L -0.2721,-0.2620 L -0.2586,-0.2294 L -0.2428,-0.1978 L -0.2249,-0.1677 L -0.2050,-0.1392 L -0.1834,-0.1127 L -0.1603,-0.0884 L -0.1361,-0.0665 L -0.1111,-0.0474 L -0.0859,-0.0312 L -0.0611,-0.0181 L -0.0374,-0.0085 L -0.0164,-0.0024 L 0.0000,0.0000"/>
        <g id="arrows39">
          <use xlink:href="#arrow1" transform="translate(-0.0496,-0.7781) rotate(166.17) scale(2.0)"/>
        </g>
      </g>
      <g id="fieldline40">
        <path d="M 0.0945,-0.0327 L 0.1219,-0.0493 L 0.1492,-0.0689 L 0.1760,-0.0913 L 0.2018,-0.1162 L 0.2264,-0.1436 L 0.2495,-0.1730 L 0.2707,-0.2043 L 0.2900,-0.2372 L 0.3072,-0.2715 L 0.3221,-0.3070 L 0.3346,-0.3433 L 0.3446,-0.3802 L 0.3522,-0.4175 L 0.3571,-0.4550 L 0.3596,-0.4923 L 0.3594,-0.5293 L 0.3568,-0.5657 L 0.3516,-0.6013 L 0.3441,-0.6360 L 0.3343,-0.6694 L 0.3222,-0.7014 L 0.3081,-0.7319 L 0.2920,-0.7607 L 0.2740,-0.7876 L 0.2543,-0.8125 L 0.2331,-0.8353 L 0.2105,-0.8560 L 0.1867,-0.8744 L 0.1618,-0.8904 L 0.1359,-0.9040 L 0.1093,-0.9152 L 0.0821,-0.9239 L 0.0544,-0.9300 L 0.0264,-0.9337 L -0.0017,-0.9348 L -0.0298,-0.9334 L -0.0577,-0.9294 L -0.0853,-0.9230 L -0.1125,-0.9140 L -0.1390,-0.9025 L -0.1648,-0.8886 L -0.1896,-0.8723 L -0.2133,-0.8537 L -0.2357,-0.8327 L -0.2568,-0.8097 L -0.2762,-0.7845 L -0.2940,-0.7574 L -0.3099,-0.7284 L -0.3238,-0.6977 L -0.3356,-0.6655 L -0.3451,-0.6319 L -0.3524,-0.5972 L -0.3572,-0.5614 L -0.3596,-0.5249 L -0.3594,-0.4879 L -0.3567,-0.4505 L -0.3514,-0.4131 L -0.3436,-0.3758 L -0.3332,-0.3389 L -0.3204,-0.3027 L -0.3053,-0.2674 L -0.2878,-0.2332 L -0.2683,-0.2005 L -0.2468,-0.1694 L -0.2236,-0.1402 L -0.1988,-0.1132 L -0.1728,-0.0885 L -0.1460,-0.0664 L -0.1186,-0.0472 L -0.0913,-0.0309 L -0.0646,-0.0179 L -0.0394,-0.0084 L -0.0171,-0.0024 L 0.0000,0.0000"/>
        <g id="arrows40">
          <use xlink:href="#arrow1" transform="translate(-0.0498,-0.9290) rotate(168.07) scale(2.0)"/>
        </g>
      </g>
      <g id="fieldline41">
        <path d="M 0.0955,-0.0297 L 0.1254,-0.0458 L 0.1557,-0.0651 L 0.1857,-0.0873 L 0.2152,-0.1123 L 0.2438,-0.1399 L 0.2710,-0.1699 L 0.2968,-0.2020 L 0.3208,-0.2360 L 0.3429,-0.2717 L 0.3629,-0.3090 L 0.3807,-0.3475 L 0.3962,-0.3870 L 0.4092,-0.4273 L 0.4198,-0.4682 L 0.4278,-0.5094 L 0.4332,-0.5508 L 0.4361,-0.5920 L 0.4364,-0.6329 L 0.4342,-0.6733 L 0.4294,-0.7130 L 0.4223,-0.7517 L 0.4127,-0.7893 L 0.4009,-0.8257 L 0.3869,-0.8605 L 0.3709,-0.8938 L 0.3528,-0.9253 L 0.3329,-0.9550 L 0.3113,-0.9827 L 0.2882,-1.0082 L 0.2636,-1.0316 L 0.2377,-1.0528 L 0.2107,-1.0716 L 0.1826,-1.0880 L 0.1538,-1.1019 L 0.1242,-1.1135 L 0.0940,-1.1225 L 0.0634,-1.1289 L 0.0325,-1.1329 L 0.0015,-1.1343 L -0.0296,-1.1331 L -0.0605,-1.1294 L -0.0911,-1.1232 L -0.1213,-1.1144 L -0.1510,-1.1031 L -0.1799,-1.0894 L -0.2081,-1.0732 L -0.2352,-1.0546 L -0.2612,-1.0337 L -0.2859,-1.0105 L -0.3092,-0.9852 L -0.3310,-0.9577 L -0.3510,-0.9282 L -0.3692,-0.8969 L -0.3855,-0.8638 L -0.3997,-0.8290 L -0.4117,-0.7928 L -0.4215,-0.7553 L -0.4289,-0.7167 L -0.4338,-0.6771 L -0.4363,-0.6368 L -0.4362,-0.5959 L -0.4336,-0.5547 L -0.4284,-0.5133 L -0.4206,-0.4721 L -0.4103,-0.4312 L -0.3975,-0.3908 L -0.3823,-0.3512 L -0.3647,-0.3126 L -0.3449,-0.2752 L -0.3230,-0.2393 L -0.2991,-0.2051 L -0.2735,-0.1728 L -0.2464,-0.1426 L -0.2180,-0.1148 L -0.1886,-0.0896 L -0.1585,-0.0671 L -0.1283,-0.0475 L -0.0983,-0.0311 L -0.0692,-0.0180 L -0.0420,-0.0083 L -0.0182,-0.0023 L 0.0000,0.0000"/>
        <g id="arrows41">
          <use xlink:href="#arrow1" transform="translate(-0.0499,-1.1295) rotate(170.18) scale(2.0)"/>
        </g>
      </g>
      <g id="fieldline42">
        <path d="M 0.0964,-0.0266 L 0.1291,-0.0422 L 0.1626,-0.0610 L 0.1964,-0.0829 L 0.2299,-0.1078 L 0.2628,-0.1355 L 0.2948,-0.1658 L 0.3257,-0.1985 L 0.3551,-0.2334 L 0.3828,-0.2703 L 0.4087,-0.3091 L 0.4326,-0.3496 L 0.4544,-0.3914 L 0.4740,-0.4345 L 0.4912,-0.4785 L 0.5060,-0.5234 L 0.5183,-0.5689 L 0.5280,-0.6148 L 0.5352,-0.6609 L 0.5399,-0.7069 L 0.5419,-0.7528 L 0.5414,-0.7983 L 0.5384,-0.8432 L 0.5329,-0.8873 L 0.5249,-0.9305 L 0.5146,-0.9726 L 0.5019,-1.0134 L 0.4870,-1.0528 L 0.4701,-1.0907 L 0.4511,-1.1269 L 0.4301,-1.1613 L 0.4074,-1.1937 L 0.3830,-1.2242 L 0.3571,-1.2525 L 0.3297,-1.2787 L 0.3010,-1.3026 L 0.2712,-1.3241 L 0.2403,-1.3433 L 0.2084,-1.3601 L 0.1758,-1.3744 L 0.1426,-1.3862 L 0.1088,-1.3955 L 0.0746,-1.4023 L 0.0402,-1.4066 L 0.0056,-1.4083 L -0.0290,-1.4074 L -0.0636,-1.4040 L -0.0978,-1.3980 L -0.1318,-1.3895 L -0.1652,-1.3785 L -0.1980,-1.3650 L -0.2301,-1.3490 L -0.2613,-1.3306 L -0.2915,-1.3098 L -0.3206,-1.2866 L -0.3484,-1.2612 L -0.3748,-1.2336 L -0.3997,-1.2038 L -0.4230,-1.1720 L -0.4445,-1.1382 L -0.4641,-1.1026 L -0.4818,-1.0652 L -0.4974,-1.0263 L -0.5107,-0.9859 L -0.5218,-0.9442 L -0.5306,-0.9014 L -0.5369,-0.8575 L -0.5407,-0.8128 L -0.5421,-0.7675 L -0.5408,-0.7218 L -0.5370,-0.6757 L -0.5307,-0.6296 L -0.5217,-0.5837 L -0.5102,-0.5380 L -0.4962,-0.4929 L -0.4798,-0.4486 L -0.4610,-0.4052 L -0.4399,-0.3629 L -0.4167,-0.3220 L -0.3914,-0.2827 L -0.3642,-0.2451 L -0.3353,-0.2095 L -0.3049,-0.1761 L -0.2733,-0.1450 L -0.2406,-0.1165 L -0.2072,-0.0906 L -0.1735,-0.0677 L -0.1399,-0.0479 L -0.1068,-0.0313 L -0.0750,-0.0181 L -0.0454,-0.0084 L -0.0196,-0.0023 L 0.0000,0.0000"/>
        <g id="arrows42">
          <use xlink:href="#arrow1" transform="translate(-0.0500,-1.4045) rotate(172.20) scale(2.0)"/>
        </g>
      </g>
      <g id="fieldline43">
        <path d="M 0.0972,-0.0236 L 0.1330,-0.0384 L 0.1701,-0.0566 L 0.2079,-0.0780 L 0.2460,-0.1026 L 0.2838,-0.1301 L 0.3212,-0.1604 L 0.3578,-0.1933 L 0.3933,-0.2288 L 0.4275,-0.2666 L 0.4602,-0.3065 L 0.4912,-0.3485 L 0.5204,-0.3922 L 0.5477,-0.4376 L 0.5728,-0.4844 L 0.5958,-0.5325 L 0.6164,-0.5817 L 0.6347,-0.6318 L 0.6505,-0.6827 L 0.6638,-0.7340 L 0.6747,-0.7858 L 0.6829,-0.8378 L 0.6887,-0.8897 L 0.6918,-0.9415 L 0.6924,-0.9930 L 0.6905,-1.0440 L 0.6860,-1.0943 L 0.6791,-1.1438 L 0.6698,-1.1924 L 0.6581,-1.2398 L 0.6441,-1.2860 L 0.6279,-1.3309 L 0.6096,-1.3742 L 0.5892,-1.4159 L 0.5669,-1.4558 L 0.5426,-1.4940 L 0.5167,-1.5301 L 0.4890,-1.5643 L 0.4599,-1.5964 L 0.4292,-1.6263 L 0.3973,-1.6539 L 0.3642,-1.6793 L 0.3299,-1.7024 L 0.2947,-1.7230 L 0.2586,-1.7412 L 0.2217,-1.7570 L 0.1842,-1.7703 L 0.1462,-1.7811 L 0.1077,-1.7894 L 0.0690,-1.7952 L 0.0300,-1.7984 L -0.0090,-1.7991 L -0.0480,-1.7972 L -0.0869,-1.7928 L -0.1255,-1.7859 L -0.1638,-1.7764 L -0.2016,-1.7645 L -0.2388,-1.7500 L -0.2753,-1.7331 L -0.3110,-1.7138 L -0.3458,-1.6920 L -0.3796,-1.6679 L -0.4122,-1.6415 L -0.4435,-1.6128 L -0.4735,-1.5818 L -0.5020,-1.5488 L -0.5289,-1.5137 L -0.5540,-1.4766 L -0.5774,-1.4376 L -0.5989,-1.3968 L -0.6183,-1.3544 L -0.6357,-1.3104 L -0.6509,-1.2649 L -0.6638,-1.2181 L -0.6744,-1.1701 L -0.6826,-1.1211 L -0.6884,-1.0712 L -0.6917,-1.0205 L -0.6924,-0.9693 L -0.6907,-0.9176 L -0.6863,-0.8657 L -0.6794,-0.8138 L -0.6700,-0.7619 L -0.6580,-0.7103 L -0.6435,-0.6591 L -0.6265,-0.6086 L -0.6072,-0.5589 L -0.5854,-0.5102 L -0.5615,-0.4626 L -0.5354,-0.4165 L -0.5072,-0.3718 L -0.4771,-0.3289 L -0.4453,-0.2879 L -0.4119,-0.2489 L -0.3770,-0.2121 L -0.3410,-0.1778 L -0.3040,-0.1461 L -0.2664,-0.1170 L -0.2284,-0.0909 L -0.1904,-0.0677 L -0.1528,-0.0478 L -0.1163,-0.0311 L -0.0813,-0.0179 L -0.0490,-0.0083 L -0.0209,-0.0023 L 0.0000,0.0000"/>
        <g id="arrows43">
          <use xlink:href="#arrow1" transform="translate(-0.0500,-1.7959) rotate(173.94) scale(2.0)"/>
        </g>
      </g>
      <g id="fieldline44">
        <path d="M 0.0979,-0.0205 L 0.1373,-0.0345 L 0.1786,-0.0520 L 0.2212,-0.0728 L 0.2645,-0.0968 L 0.3082,-0.1240 L 0.3518,-0.1542 L 0.3951,-0.1873 L 0.4378,-0.2231 L 0.4796,-0.2615 L 0.5203,-0.3023 L 0.5597,-0.3455 L 0.5977,-0.3908 L 0.6340,-0.4382 L 0.6686,-0.4875 L 0.7013,-0.5384 L 0.7320,-0.5910 L 0.7606,-0.6449 L 0.7869,-0.7001 L 0.8111,-0.7564 L 0.8328,-0.8137 L 0.8522,-0.8718 L 0.8691,-0.9304 L 0.8835,-0.9896 L 0.8954,-1.0491 L 0.9048,-1.1088 L 0.9116,-1.1684 L 0.9159,-1.2280 L 0.9176,-1.2872 L 0.9168,-1.3461 L 0.9134,-1.4044 L 0.9076,-1.4620 L 0.8994,-1.5187 L 0.8887,-1.5745 L 0.8757,-1.6292 L 0.8604,-1.6827 L 0.8429,-1.7348 L 0.8232,-1.7855 L 0.8014,-1.8347 L 0.7775,-1.8822 L 0.7518,-1.9280 L 0.7242,-1.9720 L 0.6948,-2.0141 L 0.6637,-2.0541 L 0.6310,-2.0921 L 0.5969,-2.1280 L 0.5614,-2.1618 L 0.5245,-2.1932 L 0.4865,-2.2224 L 0.4473,-2.2493 L 0.4072,-2.2738 L 0.3661,-2.2959 L 0.3243,-2.3156 L 0.2817,-2.3328 L 0.2385,-2.3476 L 0.1948,-2.3599 L 0.1507,-2.3697 L 0.1063,-2.3769 L 0.0616,-2.3817 L 0.0168,-2.3839 L -0.0280,-2.3836 L -0.0728,-2.3807 L -0.1174,-2.3753 L -0.1618,-2.3675 L -0.2058,-2.3570 L -0.2494,-2.3442 L -0.2924,-2.3288 L -0.3348,-2.3109 L -0.3765,-2.2906 L -0.4173,-2.2679 L -0.4572,-2.2428 L -0.4961,-2.2153 L -0.5338,-2.1856 L -0.5704,-2.1535 L -0.6056,-2.1193 L -0.6394,-2.0828 L -0.6716,-2.0443 L -0.7023,-2.0037 L -0.7312,-1.9612 L -0.7584,-1.9168 L -0.7837,-1.8705 L -0.8070,-1.8226 L -0.8283,-1.7730 L -0.8475,-1.7219 L -0.8645,-1.6694 L -0.8792,-1.6156 L -0.8916,-1.5606 L -0.9017,-1.5046 L -0.9093,-1.4476 L -0.9145,-1.3899 L -0.9172,-1.3314 L -0.9174,-1.2725 L -0.9150,-1.2131 L -0.9101,-1.1535 L -0.9027,-1.0938 L -0.8927,-1.0342 L -0.8801,-0.9748 L -0.8651,-0.9157 L -0.8476,-0.8572 L -0.8276,-0.7993 L -0.8052,-0.7423 L -0.7806,-0.6862 L -0.7536,-0.6313 L -0.7245,-0.5777 L -0.6933,-0.5255 L -0.6601,-0.4750 L -0.6251,-0.4262 L -0.5883,-0.3793 L -0.5500,-0.3345 L -0.5102,-0.2919 L -0.4692,-0.2516 L -0.4272,-0.2139 L -0.3844,-0.1787 L -0.3410,-0.1464 L -0.2973,-0.1169 L -0.2537,-0.0905 L -0.2105,-0.0673 L -0.1681,-0.0473 L -0.1272,-0.0307 L -0.0884,-0.0175 L -0.0528,-0.0080 L -0.0221,-0.0021 L 0.0000,0.0000"/>
        <g id="arrows44">
          <use xlink:href="#arrow1" transform="translate(-0.0500,-2.3817) rotate(175.16) scale(2.0)"/>
        </g>
      </g>
      <g id="fieldline45">
        <path d="M 0.0985,-0.0174 L 0.1425,-0.0306 L 0.1893,-0.0473 L 0.2380,-0.0676 L 0.2881,-0.0912 L 0.3391,-0.1182 L 0.3906,-0.1483 L 0.4423,-0.1816 L 0.4940,-0.2178 L 0.5452,-0.2569 L 0.5958,-0.2988 L 0.6456,-0.3434 L 0.6944,-0.3904 L 0.7420,-0.4399 L 0.7882,-0.4917 L 0.8330,-0.5456 L 0.8761,-0.6016 L 0.9174,-0.6595 L 0.9569,-0.7191 L 0.9944,-0.7804 L 1.0298,-0.8432 L 1.0631,-0.9074 L 1.0942,-0.9728 L 1.1230,-1.0394 L 1.1494,-1.1069 L 1.1734,-1.1753 L 1.1950,-1.2444 L 1.2141,-1.3140 L 1.2307,-1.3841 L 1.2447,-1.4545 L 1.2562,-1.5251 L 1.2651,-1.5958 L 1.2715,-1.6663 L 1.2753,-1.7367 L 1.2765,-1.8067 L 1.2751,-1.8763 L 1.2713,-1.9453 L 1.2649,-2.0136 L 1.2561,-2.0811 L 1.2448,-2.1477 L 1.2312,-2.2133 L 1.2152,-2.2777 L 1.1968,-2.3409 L 1.1763,-2.4027 L 1.1535,-2.4632 L 1.1286,-2.5221 L 1.1016,-2.5793 L 1.0727,-2.6349 L 1.0418,-2.6887 L 1.0090,-2.7407 L 0.9745,-2.7907 L 0.9382,-2.8388 L 0.9003,-2.8848 L 0.8609,-2.9287 L 0.8200,-2.9705 L 0.7777,-3.0100 M -0.7777,-3.0100 L -0.8200,-2.9705 L -0.8609,-2.9287 L -0.9003,-2.8848 L -0.9382,-2.8389 L -0.9744,-2.7908 L -1.0089,-2.7408 L -1.0417,-2.6888 L -1.0726,-2.6350 L -1.1016,-2.5795 L -1.1285,-2.5222 L -1.1534,-2.4634 L -1.1762,-2.4030 L -1.1968,-2.3411 L -1.2151,-2.2780 L -1.2311,-2.2136 L -1.2448,-2.1481 L -1.2561,-2.0815 L -1.2649,-2.0140 L -1.2713,-1.9457 L -1.2751,-1.8767 L -1.2765,-1.8072 L -1.2753,-1.7372 L -1.2715,-1.6668 L -1.2652,-1.5963 L -1.2563,-1.5257 L -1.2448,-1.4551 L -1.2308,-1.3847 L -1.2143,-1.3146 L -1.1952,-1.2450 L -1.1737,-1.1759 L -1.1497,-1.1076 L -1.1233,-1.0401 L -1.0945,-0.9735 L -1.0635,-0.9081 L -1.0302,-0.8439 L -0.9948,-0.7811 L -0.9573,-0.7198 L -0.9179,-0.6602 L -0.8766,-0.6023 L -0.8335,-0.5463 L -0.7888,-0.4924 L -0.7426,-0.4406 L -0.6950,-0.3911 L -0.6463,-0.3440 L -0.5965,-0.2994 L -0.5459,-0.2575 L -0.4947,-0.2184 L -0.4431,-0.1821 L -0.3914,-0.1488 L -0.3399,-0.1186 L -0.2889,-0.0916 L -0.2388,-0.0679 L -0.1901,-0.0476 L -0.1433,-0.0308 L -0.0992,-0.0176 L -0.0589,-0.0080 L -0.0245,-0.0021 L 0.0000,0.0000"/>
        <g id="arrows45">
          <use xlink:href="#arrow1" transform="translate(1.2205,-1.3415) rotate(-76.85) scale(2.0)"/>
          <use xlink:href="#arrow1" transform="translate(-1.2083,-1.2929) rotate(74.69) scale(2.0)"/>
        </g>
      </g>
      <g id="fieldline46">
        <path d="M 0.0990,-0.0142 L 0.1479,-0.0262 L 0.2005,-0.0417 L 0.2558,-0.0607 L 0.3133,-0.0831 L 0.3725,-0.1088 L 0.4328,-0.1378 L 0.4941,-0.1700 L 0.5558,-0.2053 L 0.6179,-0.2436 L 0.6800,-0.2849 L 0.7419,-0.3291 L 0.8034,-0.3760 L 0.8644,-0.4256 L 0.9246,-0.4779 L 0.9839,-0.5326 L 1.0422,-0.5898 L 1.0993,-0.6492 L 1.1552,-0.7109 L 1.2096,-0.7748 L 1.2624,-0.8406 L 1.3137,-0.9084 L 1.3632,-0.9780 L 1.4110,-1.0494 L 1.4568,-1.1223 L 1.5007,-1.1968 L 1.5425,-1.2727 L 1.5823,-1.3499 L 1.6199,-1.4283 L 1.6553,-1.5078 L 1.6884,-1.5884 L 1.7193,-1.6698 L 1.7478,-1.7520 L 1.7739,-1.8349 L 1.7976,-1.9184 L 1.8189,-2.0023 L 1.8378,-2.0866 L 1.8542,-2.1712 L 1.8681,-2.2560 L 1.8795,-2.3408 L 1.8885,-2.4256 L 1.8950,-2.5103 L 1.8989,-2.5947 L 1.9004,-2.6788 L 1.8994,-2.7625 L 1.8960,-2.8456 L 1.8902,-2.9282 L 1.8819,-3.0100 M -1.8819,-3.0100 L -1.8903,-2.9269 L -1.8962,-2.8431 L -1.8995,-2.7587 L -1.9004,-2.6738 L -1.8987,-2.5884 L -1.8945,-2.5027 L -1.8877,-2.4167 L -1.8783,-2.3307 L -1.8664,-2.2446 L -1.8519,-2.1586 L -1.8349,-2.0727 L -1.8153,-1.9872 L -1.7932,-1.9021 L -1.7686,-1.8175 L -1.7416,-1.7335 L -1.7121,-1.6502 L -1.6802,-1.5678 L -1.6460,-1.4863 L -1.6094,-1.4059 L -1.5706,-1.3267 L -1.5296,-1.2487 L -1.4865,-1.1721 L -1.4412,-1.0970 L -1.3940,-1.0236 L -1.3449,-0.9518 L -1.2940,-0.8818 L -1.2413,-0.8138 L -1.1870,-0.7478 L -1.1311,-0.6839 L -1.0739,-0.6223 L -1.0153,-0.5630 L -0.9557,-0.5061 L -0.8950,-0.4517 L -0.8335,-0.4000 L -0.7713,-0.3511 L -0.7086,-0.3049 L -0.6456,-0.2617 L -0.5826,-0.2214 L -0.5197,-0.1843 L -0.4573,-0.1503 L -0.3957,-0.1196 L -0.3351,-0.0922 L -0.2761,-0.0683 L -0.2191,-0.0478 L -0.1647,-0.0309 L -0.1138,-0.0176 L -0.0674,-0.0080 L -0.0280,-0.0021 L 0.0000,0.0000"/>
        <g id="arrows46">
          <use xlink:href="#arrow1" transform="translate(1.5008,-1.1979) rotate(-60.65) scale(2.0)"/>
          <use xlink:href="#arrow1" transform="translate(-1.4759,-1.1545) rotate(58.97) scale(2.0)"/>
        </g>
      </g>
      <g id="fieldline47">
        <path d="M 0.0994,-0.0111 L 0.1565,-0.0220 L 0.2187,-0.0366 L 0.2850,-0.0548 L 0.3545,-0.0766 L 0.4267,-0.1018 L 0.5010,-0.1306 L 0.5771,-0.1627 L 0.6545,-0.1982 L 0.7330,-0.2370 L 0.8124,-0.2790 L 0.8923,-0.3242 L 0.9725,-0.3725 L 1.0529,-0.4238 L 1.1333,-0.4781 L 1.2134,-0.5353 L 1.2932,-0.5954 L 1.3724,-0.6582 L 1.4510,-0.7237 L 1.5288,-0.7918 L 1.6057,-0.8625 L 1.6816,-0.9356 L 1.7563,-1.0112 L 1.8297,-1.0890 L 1.9018,-1.1691 L 1.9725,-1.2514 L 2.0417,-1.3357 L 2.1092,-1.4221 L 2.1751,-1.5104 L 2.2392,-1.6005 L 2.3015,-1.6924 L 2.3619,-1.7859 L 2.4203,-1.8811 L 2.4768,-1.9778 L 2.5311,-2.0759 L 2.5834,-2.1754 L 2.6334,-2.2762 L 2.6813,-2.3781 L 2.7269,-2.4812 L 2.7702,-2.5852 L 2.8112,-2.6902 L 2.8499,-2.7961 L 2.8861,-2.9027 L 2.9200,-3.0100 M -2.9200,-3.0100 L -2.8858,-2.9018 L -2.8492,-2.7942 L -2.8102,-2.6875 L -2.7688,-2.5816 L -2.7250,-2.4767 L -2.6789,-2.3728 L -2.6305,-2.2701 L -2.5799,-2.1686 L -2.5270,-2.0683 L -2.4720,-1.9695 L -2.4149,-1.8721 L -2.3558,-1.7762 L -2.2946,-1.6820 L -2.2316,-1.5896 L -2.1667,-1.4989 L -2.1000,-1.4101 L -2.0317,-1.3233 L -1.9617,-1.2385 L -1.8902,-1.1559 L -1.8172,-1.0755 L -1.7429,-0.9974 L -1.6673,-0.9216 L -1.5906,-0.8483 L -1.5129,-0.7776 L -1.4342,-0.7094 L -1.3548,-0.6439 L -1.2747,-0.5812 L -1.1942,-0.5213 L -1.1133,-0.4643 L -1.0322,-0.4103 L -0.9511,-0.3593 L -0.8703,-0.3115 L -0.7898,-0.2668 L -0.7100,-0.2253 L -0.6311,-0.1872 L -0.5534,-0.1524 L -0.4772,-0.1211 L -0.4029,-0.0932 L -0.3309,-0.0689 L -0.2618,-0.0481 L -0.1963,-0.0311 L -0.1352,-0.0177 L -0.0799,-0.0080 L -0.0331,-0.0021 L 0.0000,0.0000"/>
        <g id="arrows47">
          <use xlink:href="#arrow1" transform="translate(1.8819,-1.1472) rotate(-48.37) scale(2.0)"/>
          <use xlink:href="#arrow1" transform="translate(-1.8485,-1.1100) rotate(47.73) scale(2.0)"/>
        </g>
      </g>
      <g id="fieldline48">
        <path d="M 0.0997,-0.0079 L 0.1684,-0.0175 L 0.2446,-0.0307 L 0.3267,-0.0475 L 0.4137,-0.0680 L 0.5048,-0.0921 L 0.5995,-0.1198 L 0.6971,-0.1510 L 0.7973,-0.1856 L 0.8998,-0.2237 L 1.0042,-0.2653 L 1.1103,-0.3102 L 1.2178,-0.3584 L 1.3265,-0.4100 L 1.4362,-0.4648 L 1.5467,-0.5228 L 1.6578,-0.5840 L 1.7694,-0.6483 L 1.8813,-0.7157 L 1.9934,-0.7861 L 2.1055,-0.8595 L 2.2175,-0.9358 L 2.3293,-1.0150 L 2.4408,-1.0970 L 2.5518,-1.1819 L 2.6623,-1.2694 L 2.7722,-1.3597 L 2.8813,-1.4526 L 2.9896,-1.5481 L 3.0970,-1.6461 L 3.2034,-1.7466 L 3.3088,-1.8495 L 3.4129,-1.9548 L 3.5159,-2.0624 L 3.6176,-2.1722 L 3.7179,-2.2843 L 3.8168,-2.3985 L 3.9142,-2.5149 L 4.0100,-2.6332 M -4.0100,-2.6332 L -3.9141,-2.5148 L -3.8167,-2.3985 L -3.7178,-2.2842 L -3.6174,-2.1721 L -3.5157,-2.0622 L -3.4127,-1.9545 L -3.3085,-1.8492 L -3.2031,-1.7463 L -3.0966,-1.6457 L -2.9892,-1.5477 L -2.8809,-1.4522 L -2.7717,-1.3593 L -2.6618,-1.2690 L -2.5512,-1.1814 L -2.4401,-1.0965 L -2.3286,-1.0145 L -2.2168,-0.9353 L -2.1047,-0.8589 L -1.9926,-0.7855 L -1.8804,-0.7151 L -1.7685,-0.6477 L -1.6569,-0.5834 L -1.5457,-0.5223 L -1.4352,-0.4643 L -1.3254,-0.4095 L -1.2167,-0.3579 L -1.1092,-0.3097 L -1.0031,-0.2648 L -0.8986,-0.2233 L -0.7961,-0.1852 L -0.6959,-0.1506 L -0.5983,-0.1194 L -0.5037,-0.0918 L -0.4126,-0.0677 L -0.3256,-0.0473 L -0.2435,-0.0305 L -0.1674,-0.0173 L -0.0988,-0.0078 L -0.0408,-0.0021 L 0.0000,0.0000"/>
        <g id="arrows48">
          <use xlink:href="#arrow1" transform="translate(2.2768,-0.9778) rotate(-35.32) scale(2.0)"/>
          <use xlink:href="#arrow1" transform="translate(-2.2359,-0.9490) rotate(34.93) scale(2.0)"/>
        </g>
      </g>
      <g id="fieldline49">
        <path d="M 0.0999,-0.0048 L 0.1921,-0.0127 L 0.2969,-0.0245 L 0.4116,-0.0400 L 0.5345,-0.0593 L 0.6643,-0.0824 L 0.8003,-0.1092 L 0.9418,-0.1398 L 1.0880,-0.1740 L 1.2387,-0.2120 L 1.3933,-0.2536 L 1.5515,-0.2988 L 1.7130,-0.3477 L 1.8775,-0.4002 L 2.0447,-0.4563 L 2.2145,-0.5159 L 2.3865,-0.5790 L 2.5607,-0.6457 L 2.7367,-0.7159 L 2.9146,-0.7895 L 3.0940,-0.8666 L 3.2749,-0.9471 L 3.4570,-1.0309 L 3.6403,-1.1182 L 3.8247,-1.2088 L 4.0100,-1.3027 M -4.0100,-1.3027 L -3.8279,-1.2104 L -3.6467,-1.1213 L -3.4665,-1.0354 L -3.2874,-0.9528 L -3.1096,-0.8734 L -2.9331,-0.7973 L -2.7582,-0.7246 L -2.5849,-0.6552 L -2.4135,-0.5892 L -2.2440,-0.5265 L -2.0768,-0.4673 L -1.9119,-0.4115 L -1.7496,-0.3592 L -1.5902,-0.3103 L -1.4339,-0.2649 L -1.2810,-0.2231 L -1.1318,-0.1848 L -0.9867,-0.1500 L -0.8462,-0.1188 L -0.7106,-0.0913 L -0.5808,-0.0673 L -0.4574,-0.0469 L -0.3414,-0.0302 L -0.2342,-0.0171 L -0.1379,-0.0077 L -0.0568,-0.0020 L 0.0000,0.0000"/>
        <g id="arrows49">
          <use xlink:href="#arrow1" transform="translate(2.1109,-0.4795) rotate(-19.35) scale(2.0)"/>
          <use xlink:href="#arrow1" transform="translate(-2.0637,-0.4630) rotate(18.79) scale(2.0)"/>
        </g>
      </g>
      <g id="fieldline50">
        <path d="M 0.1000,-0.0016 L 0.2639,-0.0068 L 0.4604,-0.0157 L 0.6808,-0.0282 L 0.9207,-0.0444 L 1.1772,-0.0642 L 1.4484,-0.0877 L 1.7326,-0.1148 L 2.0287,-0.1455 L 2.3357,-0.1799 L 2.6528,-0.2179 L 2.9794,-0.2595 L 3.3148,-0.3047 L 3.6585,-0.3535 L 4.0100,-0.4060"/>
        <g id="arrows50">
          <use xlink:href="#arrow1" transform="translate(2.0605,-0.1491) rotate(-6.39) scale(2.0)"/>
        </g>
      </g>
      <g id="fieldline51">
        <path d="M 0.1000,0.0016 L 0.2639,0.0068 L 0.4604,0.0157 L 0.6808,0.0282 L 0.9207,0.0444 L 1.1772,0.0642 L 1.4484,0.0877 L 1.7326,0.1148 L 2.0287,0.1455 L 2.3357,0.1799 L 2.6528,0.2179 L 2.9794,0.2595 L 3.3148,0.3047 L 3.6585,0.3535 L 4.0100,0.4060"/>
        <g id="arrows51">
          <use xlink:href="#arrow1" transform="translate(2.0605,0.1491) rotate(6.39) scale(2.0)"/>
        </g>
      </g>
      <g id="fieldline52">
        <path d="M 0.0999,0.0048 L 0.1921,0.0127 L 0.2969,0.0245 L 0.4116,0.0400 L 0.5345,0.0593 L 0.6643,0.0824 L 0.8003,0.1092 L 0.9418,0.1398 L 1.0880,0.1740 L 1.2387,0.2120 L 1.3933,0.2536 L 1.5515,0.2988 L 1.7130,0.3477 L 1.8775,0.4002 L 2.0447,0.4563 L 2.2145,0.5159 L 2.3865,0.5790 L 2.5607,0.6457 L 2.7367,0.7159 L 2.9146,0.7895 L 3.0940,0.8666 L 3.2749,0.9471 L 3.4570,1.0309 L 3.6403,1.1182 L 3.8247,1.2088 L 4.0100,1.3027 M -4.0100,1.3027 L -3.8279,1.2104 L -3.6467,1.1213 L -3.4665,1.0354 L -3.2874,0.9528 L -3.1096,0.8734 L -2.9331,0.7973 L -2.7582,0.7246 L -2.5849,0.6552 L -2.4135,0.5892 L -2.2440,0.5265 L -2.0768,0.4673 L -1.9119,0.4115 L -1.7496,0.3592 L -1.5902,0.3103 L -1.4339,0.2649 L -1.2810,0.2231 L -1.1318,0.1848 L -0.9867,0.1500 L -0.8462,0.1188 L -0.7106,0.0913 L -0.5808,0.0673 L -0.4574,0.0469 L -0.3414,0.0302 L -0.2342,0.0171 L -0.1379,0.0077 L -0.0568,0.0020 L 0.0000,0.0000"/>
        <g id="arrows52">
          <use xlink:href="#arrow1" transform="translate(2.1109,0.4795) rotate(19.35) scale(2.0)"/>
          <use xlink:href="#arrow1" transform="translate(-2.0637,0.4630) rotate(-18.79) scale(2.0)"/>
        </g>
      </g>
      <g id="fieldline53">
        <path d="M 0.0997,0.0079 L 0.1684,0.0175 L 0.2446,0.0307 L 0.3267,0.0475 L 0.4137,0.0680 L 0.5048,0.0921 L 0.5995,0.1198 L 0.6971,0.1510 L 0.7973,0.1856 L 0.8998,0.2237 L 1.0042,0.2653 L 1.1103,0.3102 L 1.2178,0.3584 L 1.3265,0.4100 L 1.4362,0.4648 L 1.5467,0.5228 L 1.6578,0.5840 L 1.7694,0.6483 L 1.8813,0.7157 L 1.9934,0.7861 L 2.1055,0.8595 L 2.2175,0.9358 L 2.3293,1.0150 L 2.4408,1.0970 L 2.5518,1.1819 L 2.6623,1.2694 L 2.7722,1.3597 L 2.8813,1.4526 L 2.9896,1.5481 L 3.0970,1.6461 L 3.2034,1.7466 L 3.3088,1.8495 L 3.4129,1.9548 L 3.5159,2.0624 L 3.6176,2.1722 L 3.7179,2.2843 L 3.8168,2.3985 L 3.9142,2.5149 L 4.0100,2.6332 M -4.0100,2.6332 L -3.9141,2.5148 L -3.8167,2.3985 L -3.7178,2.2842 L -3.6174,2.1721 L -3.5157,2.0622 L -3.4127,1.9545 L -3.3085,1.8492 L -3.2031,1.7463 L -3.0966,1.6457 L -2.9892,1.5477 L -2.8808,1.4522 L -2.7717,1.3593 L -2.6618,1.2690 L -2.5512,1.1814 L -2.4401,1.0965 L -2.3286,1.0145 L -2.2168,0.9353 L -2.1047,0.8589 L -1.9925,0.7855 L -1.8804,0.7151 L -1.7685,0.6477 L -1.6569,0.5834 L -1.5457,0.5223 L -1.4352,0.4643 L -1.3255,0.4095 L -1.2167,0.3579 L -1.1092,0.3097 L -1.0031,0.2648 L -0.8986,0.2233 L -0.7961,0.1852 L -0.6959,0.1506 L -0.5983,0.1194 L -0.5037,0.0918 L -0.4126,0.0677 L -0.3256,0.0473 L -0.2435,0.0305 L -0.1674,0.0173 L -0.0988,0.0078 L -0.0408,0.0021 L 0.0000,0.0000"/>
        <g id="arrows53">
          <use xlink:href="#arrow1" transform="translate(2.2768,0.9778) rotate(35.32) scale(2.0)"/>
          <use xlink:href="#arrow1" transform="translate(-2.2359,0.9490) rotate(-34.93) scale(2.0)"/>
        </g>
      </g>
      <g id="fieldline54">
        <path d="M 0.0994,0.0111 L 0.1565,0.0220 L 0.2187,0.0366 L 0.2850,0.0548 L 0.3545,0.0766 L 0.4267,0.1018 L 0.5010,0.1306 L 0.5771,0.1627 L 0.6545,0.1982 L 0.7330,0.2370 L 0.8124,0.2790 L 0.8923,0.3242 L 0.9725,0.3725 L 1.0529,0.4238 L 1.1333,0.4781 L 1.2134,0.5353 L 1.2932,0.5954 L 1.3724,0.6582 L 1.4510,0.7237 L 1.5288,0.7918 L 1.6057,0.8625 L 1.6816,0.9356 L 1.7563,1.0112 L 1.8297,1.0890 L 1.9018,1.1691 L 1.9725,1.2514 L 2.0417,1.3357 L 2.1092,1.4221 L 2.1751,1.5104 L 2.2392,1.6005 L 2.3015,1.6924 L 2.3619,1.7859 L 2.4203,1.8811 L 2.4768,1.9778 L 2.5311,2.0759 L 2.5834,2.1754 L 2.6334,2.2762 L 2.6813,2.3781 L 2.7269,2.4812 L 2.7702,2.5852 L 2.8112,2.6902 L 2.8499,2.7961 L 2.8861,2.9027 L 2.9200,3.0100 M -2.9200,3.0100 L -2.8858,2.9018 L -2.8492,2.7942 L -2.8102,2.6875 L -2.7688,2.5816 L -2.7250,2.4767 L -2.6789,2.3728 L -2.6305,2.2701 L -2.5799,2.1686 L -2.5270,2.0683 L -2.4720,1.9695 L -2.4149,1.8721 L -2.3558,1.7762 L -2.2946,1.6820 L -2.2316,1.5896 L -2.1667,1.4989 L -2.1000,1.4101 L -2.0317,1.3233 L -1.9617,1.2385 L -1.8902,1.1559 L -1.8172,1.0755 L -1.7429,0.9974 L -1.6673,0.9216 L -1.5906,0.8483 L -1.5129,0.7776 L -1.4342,0.7094 L -1.3548,0.6439 L -1.2747,0.5812 L -1.1942,0.5213 L -1.1133,0.4643 L -1.0322,0.4103 L -0.9511,0.3593 L -0.8703,0.3115 L -0.7898,0.2668 L -0.7100,0.2253 L -0.6311,0.1872 L -0.5534,0.1524 L -0.4772,0.1211 L -0.4029,0.0932 L -0.3309,0.0689 L -0.2618,0.0481 L -0.1963,0.0311 L -0.1352,0.0177 L -0.0799,0.0080 L -0.0331,0.0021 L 0.0000,0.0000"/>
        <g id="arrows54">
          <use xlink:href="#arrow1" transform="translate(1.8819,1.1472) rotate(48.37) scale(2.0)"/>
          <use xlink:href="#arrow1" transform="translate(-1.8485,1.1100) rotate(-47.73) scale(2.0)"/>
        </g>
      </g>
      <g id="fieldline55">
        <path d="M 0.0990,0.0142 L 0.1479,0.0262 L 0.2005,0.0417 L 0.2558,0.0607 L 0.3133,0.0831 L 0.3725,0.1088 L 0.4328,0.1378 L 0.4941,0.1700 L 0.5558,0.2053 L 0.6179,0.2436 L 0.6800,0.2849 L 0.7419,0.3291 L 0.8034,0.3760 L 0.8644,0.4256 L 0.9246,0.4779 L 0.9839,0.5326 L 1.0422,0.5898 L 1.0993,0.6492 L 1.1552,0.7109 L 1.2096,0.7748 L 1.2624,0.8406 L 1.3137,0.9084 L 1.3632,0.9780 L 1.4110,1.0494 L 1.4568,1.1223 L 1.5007,1.1968 L 1.5425,1.2727 L 1.5823,1.3499 L 1.6199,1.4283 L 1.6553,1.5078 L 1.6884,1.5884 L 1.7193,1.6698 L 1.7478,1.7520 L 1.7739,1.8349 L 1.7976,1.9184 L 1.8189,2.0023 L 1.8378,2.0866 L 1.8542,2.1712 L 1.8681,2.2560 L 1.8795,2.3408 L 1.8885,2.4256 L 1.8950,2.5103 L 1.8989,2.5947 L 1.9004,2.6788 L 1.8994,2.7625 L 1.8960,2.8456 L 1.8902,2.9282 L 1.8819,3.0100 M -1.8819,3.0100 L -1.8903,2.9269 L -1.8962,2.8431 L -1.8995,2.7587 L -1.9004,2.6738 L -1.8987,2.5884 L -1.8945,2.5027 L -1.8877,2.4167 L -1.8783,2.3307 L -1.8664,2.2446 L -1.8519,2.1586 L -1.8349,2.0727 L -1.8153,1.9872 L -1.7932,1.9021 L -1.7686,1.8175 L -1.7416,1.7335 L -1.7121,1.6502 L -1.6802,1.5678 L -1.6460,1.4863 L -1.6094,1.4059 L -1.5706,1.3267 L -1.5296,1.2487 L -1.4865,1.1721 L -1.4412,1.0970 L -1.3940,1.0236 L -1.3449,0.9518 L -1.2940,0.8818 L -1.2413,0.8138 L -1.1870,0.7478 L -1.1311,0.6839 L -1.0739,0.6223 L -1.0153,0.5630 L -0.9557,0.5061 L -0.8950,0.4517 L -0.8335,0.4000 L -0.7713,0.3511 L -0.7086,0.3049 L -0.6456,0.2617 L -0.5826,0.2214 L -0.5197,0.1843 L -0.4573,0.1503 L -0.3957,0.1196 L -0.3351,0.0922 L -0.2761,0.0683 L -0.2191,0.0478 L -0.1647,0.0309 L -0.1138,0.0176 L -0.0674,0.0080 L -0.0280,0.0021 L 0.0000,0.0000"/>
        <g id="arrows55">
          <use xlink:href="#arrow1" transform="translate(1.5008,1.1979) rotate(60.65) scale(2.0)"/>
          <use xlink:href="#arrow1" transform="translate(-1.4759,1.1545) rotate(-58.97) scale(2.0)"/>
        </g>
      </g>
      <g id="fieldline56">
        <path d="M 0.0985,0.0174 L 0.1425,0.0306 L 0.1893,0.0473 L 0.2380,0.0676 L 0.2881,0.0912 L 0.3391,0.1182 L 0.3906,0.1483 L 0.4423,0.1816 L 0.4940,0.2178 L 0.5452,0.2569 L 0.5958,0.2988 L 0.6456,0.3434 L 0.6944,0.3904 L 0.7420,0.4399 L 0.7882,0.4917 L 0.8330,0.5456 L 0.8761,0.6016 L 0.9174,0.6595 L 0.9569,0.7191 L 0.9944,0.7804 L 1.0298,0.8432 L 1.0631,0.9074 L 1.0942,0.9728 L 1.1230,1.0394 L 1.1494,1.1069 L 1.1734,1.1753 L 1.1950,1.2444 L 1.2141,1.3140 L 1.2307,1.3841 L 1.2447,1.4545 L 1.2562,1.5251 L 1.2651,1.5958 L 1.2715,1.6663 L 1.2753,1.7367 L 1.2765,1.8067 L 1.2751,1.8763 L 1.2713,1.9453 L 1.2649,2.0136 L 1.2561,2.0811 L 1.2448,2.1477 L 1.2312,2.2133 L 1.2152,2.2777 L 1.1968,2.3409 L 1.1763,2.4027 L 1.1535,2.4632 L 1.1286,2.5221 L 1.1016,2.5793 L 1.0727,2.6349 L 1.0418,2.6887 L 1.0090,2.7407 L 0.9745,2.7907 L 0.9382,2.8388 L 0.9003,2.8848 L 0.8609,2.9287 L 0.8200,2.9705 L 0.7777,3.0100 M -0.7777,3.0100 L -0.8200,2.9705 L -0.8609,2.9287 L -0.9003,2.8848 L -0.9382,2.8389 L -0.9744,2.7908 L -1.0089,2.7408 L -1.0417,2.6888 L -1.0726,2.6350 L -1.1016,2.5795 L -1.1285,2.5222 L -1.1534,2.4634 L -1.1762,2.4030 L -1.1968,2.3411 L -1.2151,2.2780 L -1.2311,2.2136 L -1.2448,2.1481 L -1.2561,2.0815 L -1.2649,2.0140 L -1.2713,1.9457 L -1.2751,1.8767 L -1.2765,1.8072 L -1.2753,1.7372 L -1.2715,1.6668 L -1.2652,1.5963 L -1.2563,1.5257 L -1.2448,1.4551 L -1.2308,1.3847 L -1.2143,1.3146 L -1.1952,1.2450 L -1.1737,1.1759 L -1.1497,1.1076 L -1.1233,1.0401 L -1.0945,0.9735 L -1.0635,0.9081 L -1.0302,0.8439 L -0.9948,0.7811 L -0.9573,0.7198 L -0.9179,0.6602 L -0.8766,0.6023 L -0.8335,0.5463 L -0.7888,0.4924 L -0.7426,0.4406 L -0.6950,0.3911 L -0.6463,0.3440 L -0.5965,0.2994 L -0.5459,0.2575 L -0.4947,0.2184 L -0.4431,0.1821 L -0.3914,0.1488 L -0.3399,0.1186 L -0.2889,0.0916 L -0.2388,0.0679 L -0.1901,0.0476 L -0.1433,0.0308 L -0.0992,0.0176 L -0.0589,0.0080 L -0.0245,0.0021 L 0.0000,0.0000"/>
        <g id="arrows56">
          <use xlink:href="#arrow1" transform="translate(1.2205,1.3415) rotate(76.85) scale(2.0)"/>
          <use xlink:href="#arrow1" transform="translate(-1.2083,1.2929) rotate(-74.69) scale(2.0)"/>
        </g>
      </g>
      <g id="fieldline57">
        <path d="M 0.0979,0.0205 L 0.1373,0.0345 L 0.1786,0.0520 L 0.2212,0.0728 L 0.2645,0.0968 L 0.3082,0.1240 L 0.3518,0.1542 L 0.3951,0.1873 L 0.4378,0.2231 L 0.4796,0.2615 L 0.5203,0.3023 L 0.5597,0.3455 L 0.5977,0.3908 L 0.6340,0.4382 L 0.6686,0.4875 L 0.7013,0.5384 L 0.7320,0.5910 L 0.7606,0.6449 L 0.7869,0.7001 L 0.8111,0.7564 L 0.8328,0.8137 L 0.8522,0.8718 L 0.8691,0.9304 L 0.8835,0.9896 L 0.8954,1.0491 L 0.9048,1.1088 L 0.9116,1.1684 L 0.9159,1.2280 L 0.9176,1.2872 L 0.9168,1.3461 L 0.9134,1.4044 L 0.9076,1.4620 L 0.8994,1.5187 L 0.8887,1.5745 L 0.8757,1.6292 L 0.8604,1.6827 L 0.8429,1.7348 L 0.8232,1.7855 L 0.8014,1.8347 L 0.7775,1.8822 L 0.7518,1.9280 L 0.7242,1.9720 L 0.6948,2.0141 L 0.6637,2.0541 L 0.6310,2.0921 L 0.5969,2.1280 L 0.5614,2.1618 L 0.5245,2.1932 L 0.4865,2.2224 L 0.4473,2.2493 L 0.4072,2.2738 L 0.3661,2.2959 L 0.3243,2.3156 L 0.2817,2.3328 L 0.2385,2.3476 L 0.1948,2.3599 L 0.1507,2.3697 L 0.1063,2.3769 L 0.0616,2.3817 L 0.0168,2.3839 L -0.0280,2.3836 L -0.0728,2.3807 L -0.1174,2.3753 L -0.1618,2.3675 L -0.2058,2.3570 L -0.2494,2.3442 L -0.2924,2.3288 L -0.3348,2.3109 L -0.3765,2.2906 L -0.4173,2.2679 L -0.4572,2.2428 L -0.4961,2.2153 L -0.5338,2.1856 L -0.5704,2.1535 L -0.6056,2.1193 L -0.6394,2.0828 L -0.6716,2.0443 L -0.7023,2.0037 L -0.7312,1.9612 L -0.7584,1.9168 L -0.7837,1.8705 L -0.8070,1.8226 L -0.8283,1.7730 L -0.8475,1.7219 L -0.8645,1.6694 L -0.8792,1.6156 L -0.8916,1.5606 L -0.9017,1.5046 L -0.9093,1.4476 L -0.9145,1.3899 L -0.9172,1.3314 L -0.9174,1.2725 L -0.9150,1.2131 L -0.9101,1.1535 L -0.9027,1.0938 L -0.8927,1.0342 L -0.8801,0.9748 L -0.8651,0.9157 L -0.8476,0.8572 L -0.8276,0.7993 L -0.8052,0.7423 L -0.7806,0.6862 L -0.7536,0.6313 L -0.7245,0.5777 L -0.6933,0.5255 L -0.6601,0.4750 L -0.6251,0.4262 L -0.5883,0.3793 L -0.5500,0.3345 L -0.5102,0.2919 L -0.4692,0.2516 L -0.4272,0.2139 L -0.3844,0.1787 L -0.3410,0.1464 L -0.2973,0.1169 L -0.2537,0.0905 L -0.2105,0.0673 L -0.1681,0.0473 L -0.1272,0.0307 L -0.0884,0.0175 L -0.0528,0.0080 L -0.0221,0.0021 L 0.0000,0.0000"/>
        <g id="arrows57">
          <use xlink:href="#arrow1" transform="translate(-0.0500,2.3817) rotate(-175.16) scale(2.0)"/>
        </g>
      </g>
      <g id="fieldline58">
        <path d="M 0.0972,0.0236 L 0.1330,0.0384 L 0.1701,0.0566 L 0.2079,0.0780 L 0.2460,0.1026 L 0.2839,0.1301 L 0.3212,0.1604 L 0.3578,0.1934 L 0.3933,0.2288 L 0.4275,0.2666 L 0.4602,0.3066 L 0.4913,0.3485 L 0.5205,0.3923 L 0.5477,0.4377 L 0.5729,0.4845 L 0.5958,0.5326 L 0.6164,0.5818 L 0.6347,0.6319 L 0.6505,0.6828 L 0.6639,0.7342 L 0.6747,0.7859 L 0.6830,0.8379 L 0.6887,0.8898 L 0.6918,0.9417 L 0.6924,0.9931 L 0.6905,1.0441 L 0.6860,1.0945 L 0.6791,1.1440 L 0.6698,1.1925 L 0.6581,1.2400 L 0.6441,1.2862 L 0.6279,1.3310 L 0.6095,1.3743 L 0.5891,1.4160 L 0.5668,1.4560 L 0.5425,1.4941 L 0.5166,1.5303 L 0.4889,1.5645 L 0.4597,1.5965 L 0.4291,1.6264 L 0.3971,1.6541 L 0.3640,1.6794 L 0.3297,1.7025 L 0.2945,1.7231 L 0.2584,1.7413 L 0.2215,1.7571 L 0.1840,1.7704 L 0.1460,1.7812 L 0.1075,1.7895 L 0.0687,1.7952 L 0.0298,1.7984 L -0.0093,1.7991 L -0.0483,1.7972 L -0.0871,1.7928 L -0.1258,1.7858 L -0.1640,1.7764 L -0.2018,1.7644 L -0.2391,1.7499 L -0.2756,1.7330 L -0.3113,1.7136 L -0.3461,1.6919 L -0.3798,1.6677 L -0.4124,1.6413 L -0.4438,1.6125 L -0.4737,1.5816 L -0.5022,1.5485 L -0.5291,1.5134 L -0.5542,1.4763 L -0.5776,1.4373 L -0.5990,1.3965 L -0.6185,1.3540 L -0.6358,1.3100 L -0.6510,1.2645 L -0.6639,1.2177 L -0.6745,1.1697 L -0.6827,1.1206 L -0.6884,1.0707 L -0.6917,1.0200 L -0.6924,0.9688 L -0.6906,0.9171 L -0.6863,0.8652 L -0.6794,0.8133 L -0.6699,0.7614 L -0.6579,0.7098 L -0.6433,0.6586 L -0.6263,0.6081 L -0.6069,0.5584 L -0.5852,0.5097 L -0.5612,0.4621 L -0.5351,0.4160 L -0.5069,0.3713 L -0.4768,0.3284 L -0.4449,0.2874 L -0.4115,0.2485 L -0.3766,0.2117 L -0.3406,0.1774 L -0.3036,0.1457 L -0.2660,0.1167 L -0.2280,0.0906 L -0.1900,0.0675 L -0.1524,0.0476 L -0.1158,0.0309 L -0.0809,0.0178 L -0.0486,0.0082 L -0.0206,0.0022 L 0.0000,0.0000"/>
        <g id="arrows58">
          <use xlink:href="#arrow1" transform="translate(-0.0500,1.7959) rotate(-173.94) scale(2.0)"/>
        </g>
      </g>
      <g id="fieldline59">
        <path d="M 0.0964,0.0266 L 0.1291,0.0422 L 0.1626,0.0610 L 0.1964,0.0829 L 0.2299,0.1078 L 0.2628,0.1355 L 0.2948,0.1658 L 0.3257,0.1985 L 0.3551,0.2334 L 0.3828,0.2703 L 0.4087,0.3091 L 0.4326,0.3496 L 0.4544,0.3914 L 0.4740,0.4345 L 0.4912,0.4785 L 0.5060,0.5234 L 0.5183,0.5689 L 0.5280,0.6148 L 0.5352,0.6609 L 0.5399,0.7069 L 0.5419,0.7528 L 0.5414,0.7983 L 0.5384,0.8432 L 0.5329,0.8873 L 0.5249,0.9305 L 0.5146,0.9726 L 0.5019,1.0134 L 0.4870,1.0528 L 0.4701,1.0907 L 0.4511,1.1269 L 0.4301,1.1613 L 0.4074,1.1937 L 0.3830,1.2242 L 0.3571,1.2525 L 0.3297,1.2787 L 0.3010,1.3026 L 0.2712,1.3241 L 0.2403,1.3433 L 0.2084,1.3601 L 0.1758,1.3744 L 0.1426,1.3862 L 0.1088,1.3955 L 0.0746,1.4023 L 0.0402,1.4066 L 0.0056,1.4083 L -0.0290,1.4074 L -0.0636,1.4040 L -0.0978,1.3980 L -0.1318,1.3895 L -0.1652,1.3785 L -0.1980,1.3650 L -0.2301,1.3490 L -0.2613,1.3306 L -0.2915,1.3098 L -0.3206,1.2866 L -0.3484,1.2612 L -0.3748,1.2336 L -0.3997,1.2038 L -0.4230,1.1720 L -0.4445,1.1382 L -0.4641,1.1026 L -0.4818,1.0652 L -0.4974,1.0263 L -0.5107,0.9859 L -0.5218,0.9442 L -0.5306,0.9014 L -0.5369,0.8575 L -0.5407,0.8128 L -0.5421,0.7675 L -0.5408,0.7218 L -0.5370,0.6757 L -0.5307,0.6296 L -0.5217,0.5837 L -0.5102,0.5380 L -0.4962,0.4929 L -0.4798,0.4486 L -0.4610,0.4052 L -0.4399,0.3629 L -0.4167,0.3220 L -0.3914,0.2827 L -0.3642,0.2451 L -0.3353,0.2095 L -0.3049,0.1761 L -0.2733,0.1450 L -0.2406,0.1165 L -0.2072,0.0906 L -0.1735,0.0677 L -0.1399,0.0479 L -0.1068,0.0313 L -0.0750,0.0181 L -0.0454,0.0084 L -0.0196,0.0023 L 0.0000,0.0000"/>
        <g id="arrows59">
          <use xlink:href="#arrow1" transform="translate(-0.0500,1.4045) rotate(-172.20) scale(2.0)"/>
        </g>
      </g>
      <g id="fieldline60">
        <path d="M 0.0955,0.0297 L 0.1254,0.0458 L 0.1557,0.0651 L 0.1857,0.0873 L 0.2152,0.1123 L 0.2438,0.1399 L 0.2710,0.1699 L 0.2968,0.2020 L 0.3208,0.2360 L 0.3429,0.2717 L 0.3629,0.3090 L 0.3807,0.3475 L 0.3962,0.3870 L 0.4092,0.4273 L 0.4198,0.4682 L 0.4278,0.5094 L 0.4332,0.5508 L 0.4361,0.5920 L 0.4364,0.6329 L 0.4342,0.6733 L 0.4294,0.7130 L 0.4223,0.7517 L 0.4127,0.7893 L 0.4009,0.8257 L 0.3869,0.8605 L 0.3709,0.8938 L 0.3528,0.9253 L 0.3329,0.9550 L 0.3113,0.9827 L 0.2882,1.0082 L 0.2636,1.0316 L 0.2377,1.0528 L 0.2107,1.0716 L 0.1826,1.0880 L 0.1538,1.1019 L 0.1242,1.1135 L 0.0940,1.1225 L 0.0634,1.1289 L 0.0325,1.1329 L 0.0015,1.1343 L -0.0296,1.1331 L -0.0605,1.1294 L -0.0911,1.1232 L -0.1213,1.1144 L -0.1510,1.1031 L -0.1799,1.0894 L -0.2081,1.0732 L -0.2352,1.0546 L -0.2612,1.0337 L -0.2859,1.0105 L -0.3092,0.9852 L -0.3310,0.9577 L -0.3510,0.9282 L -0.3692,0.8969 L -0.3855,0.8638 L -0.3997,0.8290 L -0.4117,0.7928 L -0.4215,0.7553 L -0.4289,0.7167 L -0.4338,0.6771 L -0.4363,0.6368 L -0.4362,0.5959 L -0.4336,0.5547 L -0.4284,0.5133 L -0.4206,0.4721 L -0.4103,0.4312 L -0.3975,0.3908 L -0.3823,0.3512 L -0.3647,0.3126 L -0.3449,0.2752 L -0.3230,0.2393 L -0.2991,0.2051 L -0.2735,0.1728 L -0.2464,0.1426 L -0.2180,0.1148 L -0.1886,0.0896 L -0.1585,0.0671 L -0.1283,0.0475 L -0.0983,0.0311 L -0.0692,0.0180 L -0.0420,0.0083 L -0.0182,0.0023 L 0.0000,0.0000"/>
        <g id="arrows60">
          <use xlink:href="#arrow1" transform="translate(-0.0499,1.1295) rotate(-170.18) scale(2.0)"/>
        </g>
      </g>
      <g id="fieldline61">
        <path d="M 0.0945,0.0327 L 0.1219,0.0493 L 0.1492,0.0689 L 0.1760,0.0913 L 0.2018,0.1163 L 0.2264,0.1436 L 0.2495,0.1730 L 0.2707,0.2043 L 0.2900,0.2372 L 0.3072,0.2715 L 0.3221,0.3070 L 0.3346,0.3433 L 0.3447,0.3802 L 0.3522,0.4176 L 0.3571,0.4550 L 0.3596,0.4923 L 0.3594,0.5293 L 0.3568,0.5658 L 0.3516,0.6014 L 0.3441,0.6360 L 0.3343,0.6694 L 0.3222,0.7015 L 0.3081,0.7320 L 0.2919,0.7607 L 0.2740,0.7876 L 0.2543,0.8126 L 0.2331,0.8354 L 0.2105,0.8560 L 0.1866,0.8744 L 0.1617,0.8904 L 0.1358,0.9040 L 0.1092,0.9152 L 0.0820,0.9239 L 0.0543,0.9300 L 0.0264,0.9337 L -0.0018,0.9348 L -0.0298,0.9334 L -0.0578,0.9294 L -0.0854,0.9229 L -0.1126,0.9139 L -0.1391,0.9025 L -0.1648,0.8886 L -0.1896,0.8722 L -0.2134,0.8536 L -0.2358,0.8327 L -0.2568,0.8096 L -0.2763,0.7844 L -0.2940,0.7573 L -0.3099,0.7283 L -0.3238,0.6976 L -0.3356,0.6654 L -0.3452,0.6318 L -0.3524,0.5970 L -0.3572,0.5613 L -0.3596,0.5248 L -0.3594,0.4877 L -0.3567,0.4504 L -0.3514,0.4129 L -0.3435,0.3756 L -0.3332,0.3388 L -0.3204,0.3025 L -0.3052,0.2672 L -0.2878,0.2331 L -0.2682,0.2003 L -0.2467,0.1692 L -0.2234,0.1401 L -0.1987,0.1130 L -0.1727,0.0884 L -0.1458,0.0663 L -0.1185,0.0471 L -0.0911,0.0309 L -0.0644,0.0179 L -0.0392,0.0083 L -0.0170,0.0023 L 0.0000,0.0000"/>
        <g id="arrows61">
          <use xlink:href="#arrow1" transform="translate(-0.0498,0.9290) rotate(-168.07) scale(2.0)"/>
        </g>
      </g>
      <g id="fieldline62">
        <path d="M 0.0934,0.0357 L 0.1186,0.0528 L 0.1434,0.0728 L 0.1673,0.0954 L 0.1900,0.1204 L 0.2111,0.1475 L 0.2305,0.1765 L 0.2478,0.2071 L 0.2629,0.2390 L 0.2757,0.2720 L 0.2860,0.3057 L 0.2939,0.3399 L 0.2991,0.3743 L 0.3018,0.4087 L 0.3019,0.4428 L 0.2995,0.4762 L 0.2946,0.5089 L 0.2873,0.5406 L 0.2777,0.5710 L 0.2659,0.5999 L 0.2520,0.6273 L 0.2362,0.6528 L 0.2187,0.6764 L 0.1995,0.6978 L 0.1789,0.7171 L 0.1571,0.7342 L 0.1341,0.7488 L 0.1102,0.7611 L 0.0856,0.7708 L 0.0605,0.7781 L 0.0349,0.7828 L 0.0091,0.7850 L -0.0168,0.7846 L -0.0426,0.7817 L -0.0680,0.7762 L -0.0930,0.7682 L -0.1175,0.7577 L -0.1411,0.7447 L -0.1637,0.7293 L -0.1852,0.7116 L -0.2054,0.6916 L -0.2241,0.6695 L -0.2411,0.6454 L -0.2564,0.6193 L -0.2696,0.5915 L -0.2808,0.5621 L -0.2897,0.5313 L -0.2963,0.4993 L -0.3005,0.4663 L -0.3022,0.4326 L -0.3013,0.3984 L -0.2978,0.3640 L -0.2918,0.3296 L -0.2832,0.2956 L -0.2721,0.2620 L -0.2586,0.2294 L -0.2428,0.1978 L -0.2249,0.1677 L -0.2050,0.1392 L -0.1834,0.1127 L -0.1603,0.0884 L -0.1361,0.0665 L -0.1111,0.0474 L -0.0859,0.0312 L -0.0611,0.0181 L -0.0374,0.0085 L -0.0164,0.0024 L 0.0000,0.0000"/>
        <g id="arrows62">
          <use xlink:href="#arrow1" transform="translate(-0.0496,0.7781) rotate(-166.17) scale(2.0)"/>
        </g>
      </g>
      <g id="fieldline63">
        <path d="M 0.0922,0.0386 L 0.1151,0.0559 L 0.1372,0.0759 L 0.1583,0.0982 L 0.1778,0.1227 L 0.1957,0.1490 L 0.2115,0.1770 L 0.2253,0.2062 L 0.2367,0.2364 L 0.2457,0.2673 L 0.2523,0.2986 L 0.2563,0.3301 L 0.2579,0.3614 L 0.2569,0.3924 L 0.2534,0.4226 L 0.2476,0.4519 L 0.2395,0.4801 L 0.2292,0.5069 L 0.2168,0.5321 L 0.2025,0.5556 L 0.1865,0.5772 L 0.1690,0.5968 L 0.1500,0.6142 L 0.1298,0.6294 L 0.1086,0.6422 L 0.0866,0.6527 L 0.0639,0.6607 L 0.0407,0.6662 L 0.0172,0.6693 L -0.0065,0.6699 L -0.0301,0.6679 L -0.0534,0.6635 L -0.0764,0.6566 L -0.0987,0.6472 L -0.1204,0.6355 L -0.1410,0.6213 L -0.1606,0.6049 L -0.1788,0.5863 L -0.1955,0.5656 L -0.2106,0.5430 L -0.2238,0.5185 L -0.2351,0.4924 L -0.2442,0.4648 L -0.2511,0.4360 L -0.2556,0.4061 L -0.2577,0.3755 L -0.2573,0.3443 L -0.2544,0.3129 L -0.2490,0.2814 L -0.2411,0.2503 L -0.2307,0.2197 L -0.2180,0.1900 L -0.2031,0.1615 L -0.1861,0.1344 L -0.1673,0.1090 L -0.1469,0.0857 L -0.1252,0.0646 L -0.1026,0.0461 L -0.0796,0.0304 L -0.0568,0.0177 L -0.0349,0.0083 L -0.0154,0.0024 L 0.0000,0.0000"/>
        <g id="arrows63">
          <use xlink:href="#arrow1" transform="translate(-0.0494,0.6620) rotate(-163.67) scale(2.0)"/>
        </g>
      </g>
      <g id="fieldline64">
        <path d="M 0.0910,0.0415 L 0.1119,0.0592 L 0.1319,0.0793 L 0.1505,0.1017 L 0.1674,0.1260 L 0.1824,0.1519 L 0.1952,0.1791 L 0.2057,0.2073 L 0.2138,0.2362 L 0.2194,0.2655 L 0.2224,0.2948 L 0.2229,0.3239 L 0.2210,0.3524 L 0.2165,0.3802 L 0.2098,0.4069 L 0.2008,0.4323 L 0.1897,0.4562 L 0.1767,0.4783 L 0.1619,0.4986 L 0.1455,0.5168 L 0.1277,0.5329 L 0.1088,0.5467 L 0.0888,0.5582 L 0.0680,0.5672 L 0.0467,0.5738 L 0.0249,0.5779 L 0.0029,0.5795 L -0.0191,0.5785 L -0.0410,0.5751 L -0.0625,0.5692 L -0.0834,0.5608 L -0.1036,0.5499 L -0.1229,0.5367 L -0.1410,0.5213 L -0.1577,0.5036 L -0.1730,0.4838 L -0.1865,0.4621 L -0.1981,0.4387 L -0.2076,0.4137 L -0.2150,0.3873 L -0.2200,0.3598 L -0.2227,0.3314 L -0.2228,0.3025 L -0.2204,0.2732 L -0.2155,0.2439 L -0.2080,0.2148 L -0.1982,0.1864 L -0.1859,0.1589 L -0.1715,0.1326 L -0.1551,0.1079 L -0.1369,0.0850 L -0.1173,0.0642 L -0.0965,0.0459 L -0.0752,0.0303 L -0.0538,0.0177 L -0.0331,0.0083 L -0.0146,0.0024 L 0.0000,0.0000"/>
        <g id="arrows64">
          <use xlink:href="#arrow1" transform="translate(-0.0491,0.5701) rotate(-161.20) scale(2.0)"/>
        </g>
      </g>
      <g id="fieldline65">
        <path d="M 0.0896,0.0444 L 0.1087,0.0622 L 0.1265,0.0823 L 0.1427,0.1045 L 0.1571,0.1283 L 0.1694,0.1535 L 0.1794,0.1797 L 0.1870,0.2066 L 0.1922,0.2339 L 0.1948,0.2612 L 0.1949,0.2883 L 0.1926,0.3148 L 0.1878,0.3404 L 0.1808,0.3648 L 0.1715,0.3879 L 0.1603,0.4094 L 0.1472,0.4292 L 0.1325,0.4469 L 0.1164,0.4625 L 0.0989,0.4759 L 0.0805,0.4870 L 0.0612,0.4957 L 0.0413,0.5020 L 0.0210,0.5058 L 0.0005,0.5071 L -0.0200,0.5059 L -0.0403,0.5022 L -0.0602,0.4961 L -0.0795,0.4875 L -0.0980,0.4765 L -0.1155,0.4632 L -0.1317,0.4477 L -0.1465,0.4301 L -0.1597,0.4105 L -0.1710,0.3891 L -0.1803,0.3660 L -0.1875,0.3416 L -0.1924,0.3161 L -0.1949,0.2896 L -0.1949,0.2626 L -0.1924,0.2353 L -0.1874,0.2080 L -0.1799,0.1810 L -0.1700,0.1548 L -0.1578,0.1295 L -0.1435,0.1056 L -0.1273,0.0834 L -0.1096,0.0632 L -0.0906,0.0452 L -0.0708,0.0299 L -0.0508,0.0175 L -0.0314,0.0082 L -0.0138,0.0023 L 0.0000,0.0000"/>
        <g id="arrows65">
          <use xlink:href="#arrow1" transform="translate(-0.0488,0.4965) rotate(-158.66) scale(2.0)"/>
        </g>
      </g>
      <g id="fieldline66">
        <path d="M 0.0881,0.0472 L 0.1056,0.0653 L 0.1216,0.0856 L 0.1357,0.1077 L 0.1478,0.1313 L 0.1577,0.1560 L 0.1651,0.1814 L 0.1700,0.2073 L 0.1723,0.2331 L 0.1722,0.2587 L 0.1695,0.2836 L 0.1644,0.3076 L 0.1570,0.3303 L 0.1475,0.3516 L 0.1360,0.3712 L 0.1227,0.3888 L 0.1079,0.4044 L 0.0918,0.4177 L 0.0745,0.4288 L 0.0564,0.4374 L 0.0376,0.4436 L 0.0184,0.4472 L -0.0010,0.4483 L -0.0204,0.4470 L -0.0396,0.4430 L -0.0583,0.4366 L -0.0764,0.4277 L -0.0935,0.4165 L -0.1095,0.4029 L -0.1242,0.3871 L -0.1373,0.3692 L -0.1485,0.3495 L -0.1579,0.3280 L -0.1650,0.3052 L -0.1699,0.2811 L -0.1723,0.2561 L -0.1722,0.2305 L -0.1696,0.2046 L -0.1644,0.1788 L -0.1568,0.1534 L -0.1467,0.1288 L -0.1344,0.1054 L -0.1200,0.0835 L -0.1039,0.0634 L -0.0863,0.0455 L -0.0678,0.0302 L -0.0488,0.0177 L -0.0303,0.0083 L -0.0135,0.0024 L 0.0000,0.0000"/>
        <g id="arrows66">
          <use xlink:href="#arrow1" transform="translate(-0.0484,0.4365) rotate(-156.08) scale(2.0)"/>
        </g>
      </g>
      <g id="fieldline67">
        <path d="M 0.0866,0.0500 L 0.1023,0.0682 L 0.1164,0.0883 L 0.1285,0.1100 L 0.1384,0.1329 L 0.1460,0.1567 L 0.1511,0.1810 L 0.1536,0.2053 L 0.1537,0.2294 L 0.1512,0.2528 L 0.1464,0.2754 L 0.1393,0.2967 L 0.1301,0.3165 L 0.1190,0.3346 L 0.1061,0.3507 L 0.0918,0.3648 L 0.0763,0.3766 L 0.0597,0.3861 L 0.0423,0.3931 L 0.0244,0.3977 L 0.0062,0.3999 L -0.0121,0.3995 L -0.0302,0.3965 L -0.0479,0.3912 L -0.0651,0.3833 L -0.0814,0.3731 L -0.0966,0.3605 L -0.1104,0.3458 L -0.1227,0.3290 L -0.1333,0.3103 L -0.1418,0.2900 L -0.1482,0.2683 L -0.1523,0.2454 L -0.1539,0.2217 L -0.1531,0.1975 L -0.1497,0.1731 L -0.1438,0.1490 L -0.1355,0.1255 L -0.1248,0.1029 L -0.1121,0.0816 L -0.0974,0.0621 L -0.0813,0.0447 L -0.0640,0.0296 L -0.0462,0.0174 L -0.0287,0.0082 L -0.0127,0.0023 L 0.0000,0.0000"/>
        <g id="arrows67">
          <use xlink:href="#arrow1" transform="translate(-0.0480,0.3870) rotate(-152.89) scale(2.0)"/>
        </g>
      </g>
      <g id="fieldline68">
        <path d="M 0.0850,0.0527 L 0.0992,0.0710 L 0.1115,0.0911 L 0.1217,0.1125 L 0.1296,0.1349 L 0.1350,0.1579 L 0.1379,0.1810 L 0.1383,0.2040 L 0.1362,0.2264 L 0.1316,0.2478 L 0.1248,0.2681 L 0.1159,0.2868 L 0.1050,0.3037 L 0.0925,0.3186 L 0.0785,0.3314 L 0.0634,0.3420 L 0.0473,0.3501 L 0.0306,0.3558 L 0.0134,0.3590 L -0.0040,0.3597 L -0.0214,0.3578 L -0.0384,0.3535 L -0.0549,0.3467 L -0.0705,0.3374 L -0.0852,0.3258 L -0.0985,0.3120 L -0.1103,0.2961 L -0.1202,0.2783 L -0.1282,0.2589 L -0.1340,0.2380 L -0.1375,0.2161 L -0.1385,0.1934 L -0.1369,0.1703 L -0.1328,0.1472 L -0.1262,0.1244 L -0.1173,0.1024 L -0.1060,0.0816 L -0.0928,0.0623 L -0.0779,0.0450 L -0.0617,0.0300 L -0.0448,0.0176 L -0.0281,0.0083 L -0.0126,0.0024 L 0.0000,0.0000"/>
        <g id="arrows68">
          <use xlink:href="#arrow1" transform="translate(-0.0474,0.3453) rotate(-150.18) scale(2.0)"/>
        </g>
      </g>
      <g id="fieldline69">
        <path d="M 0.0833,0.0554 L 0.0958,0.0734 L 0.1063,0.0930 L 0.1147,0.1137 L 0.1208,0.1352 L 0.1243,0.1569 L 0.1254,0.1786 L 0.1241,0.1998 L 0.1203,0.2202 L 0.1144,0.2395 L 0.1063,0.2573 L 0.0963,0.2735 L 0.0847,0.2877 L 0.0716,0.2999 L 0.0574,0.3098 L 0.0423,0.3174 L 0.0265,0.3226 L 0.0103,0.3254 L -0.0060,0.3257 L -0.0223,0.3236 L -0.0382,0.3190 L -0.0536,0.3120 L -0.0680,0.3027 L -0.0814,0.2911 L -0.0934,0.2774 L -0.1039,0.2617 L -0.1124,0.2443 L -0.1190,0.2254 L -0.1233,0.2052 L -0.1253,0.1842 L -0.1249,0.1626 L -0.1219,0.1408 L -0.1165,0.1193 L -0.1088,0.0983 L -0.0987,0.0784 L -0.0867,0.0599 L -0.0730,0.0433 L -0.0579,0.0288 L -0.0421,0.0169 L -0.0263,0.0080 L -0.0117,0.0023 L 0.0000,0.0000"/>
        <g id="arrows69">
          <use xlink:href="#arrow1" transform="translate(-0.0468,0.3102) rotate(-147.23) scale(2.0)"/>
        </g>
      </g>
      <g id="fieldline70">
        <path d="M 0.0815,0.0580 L 0.0927,0.0764 L 0.1018,0.0961 L 0.1085,0.1167 L 0.1127,0.1378 L 0.1144,0.1589 L 0.1134,0.1797 L 0.1100,0.1996 L 0.1043,0.2184 L 0.0964,0.2357 L 0.0865,0.2512 L 0.0750,0.2647 L 0.0620,0.2761 L 0.0479,0.2851 L 0.0329,0.2916 L 0.0173,0.2957 L 0.0015,0.2972 L -0.0144,0.2962 L -0.0300,0.2926 L -0.0451,0.2865 L -0.0594,0.2779 L -0.0726,0.2671 L -0.0845,0.2539 L -0.0947,0.2388 L -0.1030,0.2218 L -0.1091,0.2033 L -0.1130,0.1835 L -0.1144,0.1629 L -0.1132,0.1418 L -0.1095,0.1207 L -0.1033,0.0999 L -0.0946,0.0800 L -0.0838,0.0614 L -0.0710,0.0445 L -0.0567,0.0297 L -0.0415,0.0175 L -0.0260,0.0083 L -0.0117,0.0024 L 0.0000,0.0000"/>
        <g id="arrows70">
          <use xlink:href="#arrow1" transform="translate(-0.0463,0.2804) rotate(-144.21) scale(2.0)"/>
        </g>
      </g>
      <g id="fieldline71">
        <path d="M 0.0796,0.0606 L 0.0894,0.0788 L 0.0970,0.0981 L 0.1021,0.1182 L 0.1046,0.1384 L 0.1046,0.1584 L 0.1021,0.1778 L 0.0972,0.1961 L 0.0901,0.2130 L 0.0810,0.2281 L 0.0702,0.2414 L 0.0579,0.2524 L 0.0445,0.2612 L 0.0302,0.2675 L 0.0153,0.2714 L 0.0002,0.2727 L -0.0150,0.2714 L -0.0299,0.2676 L -0.0442,0.2614 L -0.0576,0.2527 L -0.0700,0.2417 L -0.0808,0.2285 L -0.0899,0.2133 L -0.0971,0.1965 L -0.1020,0.1782 L -0.1046,0.1588 L -0.1047,0.1389 L -0.1022,0.1186 L -0.0971,0.0986 L -0.0896,0.0792 L -0.0798,0.0610 L -0.0680,0.0443 L -0.0547,0.0297 L -0.0402,0.0176 L -0.0254,0.0084 L -0.0115,0.0024 L 0.0000,0.0000"/>
        <g id="arrows71">
          <use xlink:href="#arrow1" transform="translate(-0.0456,0.2546) rotate(-141.14) scale(2.0)"/>
        </g>
      </g>
      <g id="fieldline72">
        <path d="M 0.0776,0.0631 L 0.0859,0.0807 L 0.0919,0.0991 L 0.0956,0.1181 L 0.0968,0.1370 L 0.0956,0.1555 L 0.0921,0.1731 L 0.0863,0.1896 L 0.0786,0.2046 L 0.0691,0.2178 L 0.0581,0.2290 L 0.0459,0.2381 L 0.0328,0.2449 L 0.0190,0.2493 L 0.0049,0.2514 L -0.0094,0.2510 L -0.0235,0.2482 L -0.0371,0.2430 L -0.0499,0.2354 L -0.0618,0.2257 L -0.0723,0.2138 L -0.0813,0.2000 L -0.0884,0.1845 L -0.0934,0.1676 L -0.0962,0.1496 L -0.0967,0.1310 L -0.0947,0.1120 L -0.0903,0.0932 L -0.0835,0.0749 L -0.0745,0.0577 L -0.0636,0.0420 L -0.0512,0.0281 L -0.0376,0.0167 L -0.0238,0.0079 L -0.0107,0.0023 L 0.0000,0.0000"/>
        <g id="arrows72">
          <use xlink:href="#arrow1" transform="translate(-0.0449,0.2321) rotate(-138.54) scale(2.0)"/>
        </g>
      </g>
      <g id="fieldline73">
        <path d="M 0.0756,0.0655 L 0.0826,0.0830 L 0.0873,0.1012 L 0.0896,0.1197 L 0.0893,0.1378 L 0.0866,0.1553 L 0.0817,0.1717 L 0.0747,0.1866 L 0.0658,0.1998 L 0.0554,0.2110 L 0.0436,0.2201 L 0.0310,0.2268 L 0.0176,0.2312 L 0.0038,0.2331 L -0.0100,0.2325 L -0.0236,0.2295 L -0.0367,0.2241 L -0.0490,0.2163 L -0.0602,0.2063 L -0.0700,0.1941 L -0.0781,0.1801 L -0.0842,0.1645 L -0.0881,0.1476 L -0.0897,0.1297 L -0.0889,0.1114 L -0.0855,0.0930 L -0.0798,0.0751 L -0.0717,0.0580 L -0.0616,0.0423 L -0.0498,0.0284 L -0.0368,0.0169 L -0.0233,0.0080 L -0.0105,0.0023 L 0.0000,0.0000"/>
        <g id="arrows73">
          <use xlink:href="#arrow1" transform="translate(-0.0441,0.2126) rotate(-135.48) scale(2.0)"/>
        </g>
      </g>
      <g id="fieldline74">
        <path d="M 0.0735,0.0679 L 0.0793,0.0854 L 0.0827,0.1034 L 0.0836,0.1213 L 0.0819,0.1387 L 0.0778,0.1552 L 0.0715,0.1702 L 0.0632,0.1836 L 0.0533,0.1950 L 0.0420,0.2041 L 0.0296,0.2110 L 0.0165,0.2153 L 0.0031,0.2171 L -0.0105,0.2165 L -0.0238,0.2132 L -0.0365,0.2075 L -0.0483,0.1994 L -0.0589,0.1890 L -0.0680,0.1765 L -0.0752,0.1622 L -0.0803,0.1463 L -0.0831,0.1293 L -0.0834,0.1115 L -0.0812,0.0935 L -0.0764,0.0757 L -0.0692,0.0586 L -0.0598,0.0428 L -0.0486,0.0288 L -0.0361,0.0171 L -0.0229,0.0081 L -0.0103,0.0023 L 0.0000,0.0000"/>
        <g id="arrows74">
          <use xlink:href="#arrow1" transform="translate(-0.0433,0.1954) rotate(-132.49) scale(2.0)"/>
        </g>
      </g>
      <g id="fieldline75">
        <path d="M 0.0713,0.0701 L 0.0759,0.0871 L 0.0781,0.1043 L 0.0777,0.1212 L 0.0750,0.1374 L 0.0700,0.1525 L 0.0630,0.1661 L 0.0543,0.1778 L 0.0440,0.1875 L 0.0326,0.1950 L 0.0204,0.2001 L 0.0077,0.2028 L -0.0053,0.2030 L -0.0180,0.2008 L -0.0304,0.1961 L -0.0420,0.1891 L -0.0525,0.1798 L -0.0615,0.1684 L -0.0689,0.1552 L -0.0743,0.1403 L -0.0774,0.1243 L -0.0782,0.1075 L -0.0765,0.0903 L -0.0723,0.0733 L -0.0658,0.0569 L -0.0571,0.0417 L -0.0465,0.0281 L -0.0346,0.0167 L -0.0221,0.0080 L -0.0100,0.0023 L 0.0000,0.0000"/>
        <g id="arrows75">
          <use xlink:href="#arrow1" transform="translate(-0.0426,0.1804) rotate(-129.37) scale(2.0)"/>
        </g>
      </g>
      <g id="fieldline76">
        <path d="M 0.0690,0.0724 L 0.0725,0.0888 L 0.0735,0.1052 L 0.0721,0.1212 L 0.0684,0.1363 L 0.0626,0.1500 L 0.0550,0.1621 L 0.0458,0.1724 L 0.0353,0.1805 L 0.0239,0.1863 L 0.0118,0.1898 L -0.0005,0.1909 L -0.0129,0.1896 L -0.0249,0.1859 L -0.0362,0.1799 L -0.0466,0.1716 L -0.0557,0.1612 L -0.0632,0.1489 L -0.0688,0.1350 L -0.0723,0.1199 L -0.0735,0.1039 L -0.0723,0.0874 L -0.0686,0.0710 L -0.0626,0.0552 L -0.0545,0.0405 L -0.0445,0.0273 L -0.0332,0.0162 L -0.0211,0.0077 L -0.0096,0.0022 L 0.0000,0.0000"/>
        <g id="arrows76">
          <use xlink:href="#arrow1" transform="translate(-0.0417,0.1669) rotate(-126.55) scale(2.0)"/>
        </g>
      </g>
      <g id="fieldline77">
        <path d="M 0.0667,0.0745 L 0.0691,0.0910 L 0.0689,0.1072 L 0.0662,0.1227 L 0.0612,0.1370 L 0.0542,0.1497 L 0.0454,0.1604 L 0.0351,0.1690 L 0.0238,0.1752 L 0.0119,0.1789 L -0.0005,0.1800 L -0.0128,0.1787 L -0.0247,0.1748 L -0.0360,0.1684 L -0.0461,0.1597 L -0.0548,0.1488 L -0.0617,0.1360 L -0.0665,0.1216 L -0.0690,0.1060 L -0.0690,0.0897 L -0.0664,0.0733 L -0.0613,0.0572 L -0.0538,0.0421 L -0.0443,0.0285 L -0.0332,0.0170 L -0.0212,0.0081 L -0.0096,0.0023 L 0.0000,0.0000"/>
        <g id="arrows77">
          <use xlink:href="#arrow1" transform="translate(-0.0409,0.1550) rotate(-123.71) scale(2.0)"/>
        </g>
      </g>
      <g id="fieldline78">
        <path d="M 0.0643,0.0766 L 0.0656,0.0925 L 0.0644,0.1080 L 0.0608,0.1226 L 0.0549,0.1357 L 0.0472,0.1471 L 0.0379,0.1564 L 0.0274,0.1635 L 0.0160,0.1681 L 0.0042,0.1703 L -0.0078,0.1699 L -0.0195,0.1670 L -0.0306,0.1616 L -0.0408,0.1539 L -0.0497,0.1439 L -0.0569,0.1320 L -0.0621,0.1184 L -0.0650,0.1035 L -0.0655,0.0878 L -0.0634,0.0719 L -0.0588,0.0562 L -0.0518,0.0414 L -0.0428,0.0280 L -0.0322,0.0167 L -0.0206,0.0080 L -0.0093,0.0023 L 0.0000,0.0000"/>
        <g id="arrows78">
          <use xlink:href="#arrow1" transform="translate(-0.0403,0.1445) rotate(-120.97) scale(2.0)"/>
        </g>
      </g>
      <g id="fieldline79">
        <path d="M 0.0618,0.0786 L 0.0621,0.0940 L 0.0599,0.1087 L 0.0554,0.1223 L 0.0488,0.1343 L 0.0405,0.1445 L 0.0308,0.1524 L 0.0201,0.1580 L 0.0087,0.1611 L -0.0029,0.1618 L -0.0145,0.1599 L -0.0256,0.1555 L -0.0358,0.1487 L -0.0449,0.1397 L -0.0524,0.1286 L -0.0579,0.1157 L -0.0613,0.1015 L -0.0623,0.0864 L -0.0607,0.0708 L -0.0566,0.0555 L -0.0502,0.0410 L -0.0416,0.0278 L -0.0313,0.0166 L -0.0201,0.0079 L -0.0091,0.0022 L 0.0000,0.0000"/>
        <g id="arrows79">
          <use xlink:href="#arrow1" transform="translate(-0.0393,0.1349) rotate(-118.16) scale(2.0)"/>
        </g>
      </g>
      <g id="fieldline80">
        <path d="M 0.0593,0.0805 L 0.0586,0.0954 L 0.0555,0.1094 L 0.0502,0.1220 L 0.0429,0.1329 L 0.0340,0.1418 L 0.0240,0.1484 L 0.0131,0.1525 L 0.0018,0.1542 L -0.0096,0.1533 L -0.0206,0.1499 L -0.0310,0.1441 L -0.0402,0.1360 L -0.0481,0.1257 L -0.0540,0.1135 L -0.0579,0.0999 L -0.0593,0.0853 L -0.0583,0.0701 L -0.0547,0.0551 L -0.0487,0.0407 L -0.0405,0.0277 L -0.0306,0.0165 L -0.0197,0.0079 L -0.0089,0.0022 L 0.0000,0.0000"/>
        <g id="arrows80">
          <use xlink:href="#arrow1" transform="translate(-0.0386,0.1263) rotate(-115.46) scale(2.0)"/>
        </g>
      </g>
      <g id="fieldline81">
        <path d="M 0.0567,0.0824 L 0.0551,0.0967 L 0.0511,0.1099 L 0.0450,0.1216 L 0.0370,0.1314 L 0.0277,0.1390 L 0.0174,0.1442 L 0.0064,0.1470 L -0.0048,0.1472 L -0.0158,0.1448 L -0.0263,0.1399 L -0.0358,0.1327 L -0.0439,0.1232 L -0.0503,0.1117 L -0.0546,0.0987 L -0.0566,0.0845 L -0.0561,0.0697 L -0.0530,0.0549 L -0.0474,0.0406 L -0.0396,0.0276 L -0.0300,0.0165 L -0.0193,0.0078 L -0.0087,0.0022 L 0.0000,0.0000"/>
        <g id="arrows81">
          <use xlink:href="#arrow1" transform="translate(-0.0377,0.1186) rotate(-112.87) scale(2.0)"/>
        </g>
      </g>
      <g id="fieldline82">
        <path d="M 0.0541,0.0841 L 0.0517,0.0973 L 0.0472,0.1093 L 0.0408,0.1198 L 0.0329,0.1284 L 0.0238,0.1350 L 0.0139,0.1392 L 0.0034,0.1412 L -0.0071,0.1408 L -0.0174,0.1380 L -0.0271,0.1329 L -0.0359,0.1256 L -0.0433,0.1163 L -0.0490,0.1053 L -0.0528,0.0928 L -0.0544,0.0793 L -0.0536,0.0653 L -0.0504,0.0514 L -0.0450,0.0380 L -0.0375,0.0258 L -0.0284,0.0154 L -0.0183,0.0074 L -0.0082,0.0021 L 0.0000,0.0000"/>
        <g id="arrows82">
          <use xlink:href="#arrow1" transform="translate(-0.0370,0.1117) rotate(-110.41) scale(2.0)"/>
        </g>
      </g>
      <g id="fieldline83">
        <path d="M 0.0514,0.0858 L 0.0482,0.0984 L 0.0429,0.1097 L 0.0359,0.1193 L 0.0274,0.1268 L 0.0179,0.1322 L 0.0078,0.1352 L -0.0026,0.1358 L -0.0129,0.1340 L -0.0228,0.1298 L -0.0318,0.1233 L -0.0396,0.1148 L -0.0458,0.1043 L -0.0500,0.0923 L -0.0521,0.0791 L -0.0518,0.0654 L -0.0491,0.0515 L -0.0440,0.0382 L -0.0369,0.0260 L -0.0280,0.0155 L -0.0180,0.0074 L -0.0081,0.0021 L 0.0000,0.0000"/>
        <g id="arrows83">
          <use xlink:href="#arrow1" transform="translate(-0.0363,0.1054) rotate(-107.72) scale(2.0)"/>
        </g>
      </g>
      <g id="fieldline84">
        <path d="M 0.0486,0.0874 L 0.0446,0.0995 L 0.0386,0.1100 L 0.0310,0.1186 L 0.0221,0.1251 L 0.0123,0.1292 L 0.0020,0.1309 L -0.0083,0.1302 L -0.0183,0.1270 L -0.0276,0.1214 L -0.0358,0.1136 L -0.0425,0.1037 L -0.0473,0.0922 L -0.0500,0.0794 L -0.0502,0.0658 L -0.0480,0.0521 L -0.0433,0.0387 L -0.0365,0.0264 L -0.0278,0.0158 L -0.0180,0.0075 L -0.0081,0.0021 L 0.0000,0.0000"/>
        <g id="arrows84">
          <use xlink:href="#arrow1" transform="translate(-0.0355,0.0997) rotate(-105.48) scale(2.0)"/>
        </g>
      </g>
      <g id="fieldline85">
        <path d="M 0.0458,0.0889 L 0.0410,0.1004 L 0.0343,0.1102 L 0.0261,0.1178 L 0.0167,0.1232 L 0.0066,0.1261 L -0.0037,0.1264 L -0.0139,0.1243 L -0.0235,0.1196 L -0.0321,0.1126 L -0.0393,0.1034 L -0.0447,0.0924 L -0.0479,0.0799 L -0.0487,0.0664 L -0.0469,0.0527 L -0.0427,0.0393 L -0.0361,0.0268 L -0.0276,0.0161 L -0.0179,0.0076 L -0.0080,0.0021 L 0.0000,0.0000"/>
        <g id="arrows85">
          <use xlink:href="#arrow1" transform="translate(-0.0349,0.0945) rotate(-102.95) scale(2.0)"/>
        </g>
      </g>
      <g id="fieldline86">
        <path d="M 0.0430,0.0903 L 0.0377,0.1007 L 0.0308,0.1094 L 0.0226,0.1160 L 0.0135,0.1204 L 0.0038,0.1225 L -0.0060,0.1222 L -0.0156,0.1196 L -0.0246,0.1146 L -0.0326,0.1075 L -0.0391,0.0984 L -0.0439,0.0877 L -0.0466,0.0756 L -0.0471,0.0628 L -0.0452,0.0497 L -0.0409,0.0370 L -0.0345,0.0252 L -0.0263,0.0151 L -0.0170,0.0072 L -0.0076,0.0020 L 0.0000,0.0000"/>
        <g id="arrows86">
          <use xlink:href="#arrow1" transform="translate(-0.0342,0.0898) rotate(-100.66) scale(2.0)"/>
        </g>
      </g>
      <g id="fieldline87">
        <path d="M 0.0401,0.0916 L 0.0342,0.1014 L 0.0266,0.1093 L 0.0179,0.1149 L 0.0084,0.1183 L -0.0014,0.1191 L -0.0112,0.1175 L -0.0205,0.1135 L -0.0289,0.1072 L -0.0361,0.0988 L -0.0415,0.0885 L -0.0448,0.0767 L -0.0459,0.0639 L -0.0444,0.0508 L -0.0406,0.0379 L -0.0345,0.0260 L -0.0264,0.0156 L -0.0172,0.0074 L -0.0077,0.0021 L 0.0000,0.0000"/>
        <g id="arrows87">
          <use xlink:href="#arrow1" transform="translate(-0.0336,0.0855) rotate(-98.61) scale(2.0)"/>
        </g>
      </g>
      <g id="fieldline88">
        <path d="M 0.0372,0.0928 L 0.0305,0.1020 L 0.0224,0.1090 L 0.0133,0.1137 L 0.0035,0.1159 L -0.0065,0.1155 L -0.0161,0.1125 L -0.0251,0.1071 L -0.0328,0.0994 L -0.0388,0.0896 L -0.0429,0.0782 L -0.0446,0.0656 L -0.0438,0.0524 L -0.0405,0.0394 L -0.0347,0.0271 L -0.0269,0.0164 L -0.0177,0.0079 L -0.0081,0.0022 L 0.0000,0.0000"/>
        <g id="arrows88">
          <use xlink:href="#arrow1" transform="translate(-0.0330,0.0816) rotate(-96.26) scale(2.0)"/>
        </g>
      </g>
      <g id="fieldline89">
        <path d="M 0.0342,0.0940 L 0.0273,0.1021 L 0.0191,0.1081 L 0.0101,0.1119 L 0.0007,0.1132 L -0.0088,0.1122 L -0.0179,0.1088 L -0.0262,0.1031 L -0.0333,0.0952 L -0.0388,0.0855 L -0.0423,0.0743 L -0.0436,0.0621 L -0.0425,0.0494 L -0.0389,0.0369 L -0.0331,0.0253 L -0.0255,0.0152 L -0.0166,0.0072 L -0.0074,0.0020 L 0.0000,0.0000"/>
        <g id="arrows89">
          <use xlink:href="#arrow1" transform="translate(-0.0325,0.0780) rotate(-94.17) scale(2.0)"/>
        </g>
      </g>
      <g id="fieldline90">
        <path d="M 0.0312,0.0950 L 0.0237,0.1025 L 0.0150,0.1076 L 0.0056,0.1104 L -0.0041,0.1106 L -0.0136,0.1082 L -0.0224,0.1034 L -0.0301,0.0963 L -0.0363,0.0871 L -0.0406,0.0761 L -0.0425,0.0640 L -0.0420,0.0512 L -0.0389,0.0384 L -0.0334,0.0264 L -0.0259,0.0159 L -0.0169,0.0076 L -0.0076,0.0021 L 0.0000,0.0000"/>
        <g id="arrows90">
          <use xlink:href="#arrow1" transform="translate(-0.0321,0.0748) rotate(-92.23) scale(2.0)"/>
        </g>
      </g>
      <g id="fieldline91">
        <path d="M 0.0282,0.0959 L 0.0205,0.1024 L 0.0119,0.1066 L 0.0027,0.1085 L -0.0066,0.1080 L -0.0155,0.1052 L -0.0238,0.1000 L -0.0310,0.0927 L -0.0366,0.0834 L -0.0403,0.0727 L -0.0418,0.0609 L -0.0409,0.0485 L -0.0377,0.0363 L -0.0322,0.0249 L -0.0248,0.0149 L -0.0161,0.0071 L -0.0072,0.0020 L 0.0000,0.0000"/>
        <g id="arrows91">
          <use xlink:href="#arrow1" transform="translate(-0.0317,0.0719) rotate(-90.24) scale(2.0)"/>
        </g>
      </g>
      <g id="fieldline92">
        <path d="M 0.0251,0.0968 L 0.0169,0.1025 L 0.0078,0.1059 L -0.0017,0.1067 L -0.0111,0.1050 L -0.0199,0.1008 L -0.0278,0.0942 L -0.0341,0.0855 L -0.0386,0.0750 L -0.0409,0.0632 L -0.0406,0.0507 L -0.0379,0.0381 L -0.0327,0.0263 L -0.0254,0.0158 L -0.0166,0.0075 L -0.0075,0.0021 L 0.0000,0.0000"/>
        <g id="arrows92">
          <use xlink:href="#arrow1" transform="translate(-0.0311,0.0691) rotate(-88.24) scale(2.0)"/>
        </g>
      </g>
      <g id="fieldline93">
        <path d="M 0.0220,0.0975 L 0.0138,0.1023 L 0.0049,0.1048 L -0.0043,0.1048 L -0.0132,0.1025 L -0.0215,0.0979 L -0.0288,0.0911 L -0.0346,0.0824 L -0.0386,0.0720 L -0.0404,0.0605 L -0.0398,0.0484 L -0.0369,0.0364 L -0.0317,0.0250 L -0.0246,0.0151 L -0.0161,0.0072 L -0.0073,0.0020 L 0.0000,0.0000"/>
        <g id="arrows93">
          <use xlink:href="#arrow1" transform="translate(-0.0308,0.0666) rotate(-86.37) scale(2.0)"/>
        </g>
      </g>
      <g id="fieldline94">
        <path d="M 0.0189,0.0982 L 0.0107,0.1020 L 0.0020,0.1037 L -0.0068,0.1030 L -0.0153,0.1002 L -0.0231,0.0952 L -0.0298,0.0881 L -0.0351,0.0793 L -0.0385,0.0690 L -0.0399,0.0578 L -0.0390,0.0461 L -0.0359,0.0345 L -0.0307,0.0237 L -0.0236,0.0142 L -0.0154,0.0068 L -0.0069,0.0019 L 0.0000,0.0000"/>
        <g id="arrows94">
          <use xlink:href="#arrow1" transform="translate(-0.0305,0.0644) rotate(-84.57) scale(2.0)"/>
        </g>
      </g>
      <g id="fieldline95">
        <path d="M 0.0158,0.0987 L 0.0071,0.1018 L -0.0020,0.1025 L -0.0110,0.1008 L -0.0194,0.0967 L -0.0269,0.0903 L -0.0329,0.0819 L -0.0372,0.0718 L -0.0393,0.0605 L -0.0390,0.0485 L -0.0363,0.0365 L -0.0313,0.0251 L -0.0243,0.0152 L -0.0159,0.0072 L -0.0072,0.0020 L 0.0000,0.0000"/>
        <g id="arrows95">
          <use xlink:href="#arrow1" transform="translate(-0.0304,0.0623) rotate(-82.77) scale(2.0)"/>
        </g>
      </g>
      <g id="fieldline96">
        <path d="M 0.0127,0.0992 L 0.0040,0.1014 L -0.0047,0.1013 L -0.0133,0.0989 L -0.0213,0.0943 L -0.0282,0.0877 L -0.0337,0.0792 L -0.0374,0.0691 L -0.0391,0.0580 L -0.0384,0.0463 L -0.0355,0.0347 L -0.0304,0.0239 L -0.0235,0.0144 L -0.0154,0.0068 L -0.0068,0.0019 L 0.0000,0.0000"/>
        <g id="arrows96">
          <use xlink:href="#arrow1" transform="translate(-0.0302,0.0604) rotate(-81.06) scale(2.0)"/>
        </g>
      </g>
      <g id="fieldline97">
        <path d="M 0.0095,0.0995 L 0.0005,0.1009 L -0.0086,0.0998 L -0.0173,0.0962 L -0.0250,0.0903 L -0.0314,0.0823 L -0.0360,0.0724 L -0.0385,0.0612 L -0.0386,0.0492 L -0.0361,0.0371 L -0.0313,0.0256 L -0.0244,0.0155 L -0.0161,0.0074 L -0.0073,0.0021 L 0.0000,0.0000"/>
        <g id="arrows97">
          <use xlink:href="#arrow1" transform="translate(-0.0298,0.0586) rotate(-79.38) scale(2.0)"/>
        </g>
      </g>
      <g id="fieldline98">
        <path d="M 0.0063,0.0998 L -0.0025,0.1003 L -0.0112,0.0985 L -0.0194,0.0943 L -0.0266,0.0880 L -0.0325,0.0798 L -0.0365,0.0699 L -0.0385,0.0588 L -0.0382,0.0471 L -0.0355,0.0354 L -0.0305,0.0243 L -0.0237,0.0147 L -0.0155,0.0070 L -0.0069,0.0019 L 0.0000,0.0000"/>
        <g id="arrows98">
          <use xlink:href="#arrow1" transform="translate(-0.0298,0.0570) rotate(-77.71) scale(2.0)"/>
        </g>
      </g>
      <g id="fieldline99">
        <path d="M 0.0032,0.0999 L -0.0054,0.0997 L -0.0138,0.0972 L -0.0215,0.0925 L -0.0282,0.0859 L -0.0335,0.0774 L -0.0370,0.0675 L -0.0385,0.0566 L -0.0378,0.0452 L -0.0349,0.0339 L -0.0299,0.0233 L -0.0231,0.0140 L -0.0151,0.0067 L -0.0068,0.0019 L 0.0000,0.0000"/>
        <g id="arrows99">
          <use xlink:href="#arrow1" transform="translate(-0.0297,0.0555) rotate(-76.09) scale(2.0)"/>
        </g>
      </g>
      <g id="fieldline100">
        <path d="M -0.0000,0.1000 L -0.0090,0.0988 L -0.0175,0.0952 L -0.0251,0.0892 L -0.0313,0.0812 L -0.0358,0.0714 L -0.0382,0.0603 L -0.0382,0.0484 L -0.0357,0.0365 L -0.0309,0.0252 L -0.0241,0.0152 L -0.0158,0.0072 L -0.0071,0.0020 L 0.0000,0.0000"/>
        <g id="arrows100">
          <use xlink:href="#arrow1" transform="translate(-0.0298,0.0540) rotate(-74.52) scale(2.0)"/>
        </g>
      </g>
    </g>
  </g>
</svg>
